<svg width="223" height="151" viewBox="0 0 223 151" xmlns="http://www.w3.org/2000/svg"><g fill="none" fill-rule="evenodd"><path fill="#F3E0DB" d="M223 0H0v150.902h223z"/><g stroke="#F3E0DB" stroke-width="1.5"><path fill="#EAA997" d="M69.009 33.426v1.425h1.207v35.334h23.299V33.426z"/><path fill="#EF4F23" d="M69.009 106.944v-1.424h1.207V70.185h23.299v36.76z"/><path fill="#EAA997" d="M60.84 49.764v1.367h.93v19.054h7.239V49.764z"/><path fill="#EF4F23" d="M61.77 70.185V89.24h-.93v1.367h8.169V70.185z"/><path fill="#FFF" d="M93.515 64.059h36.759V39.553h-36.76zM93.515 102.86h36.759V78.354h-36.76zM112.421 29.342v1.414H97.044v-1.414h-1.487v10.21h18.38v-10.21zM95.557 102.86v10.211h1.488v-1.413h15.376v1.413h1.515v-10.21zM128.231 102.86v10.211h1.625v-1.413h11.192v1.413h1.479v-10.21zM141.048 29.342v1.414h-11.192v-1.414h-1.625v10.21h14.296v-10.21z"/><path fill="#FFF" d="M128.374 78.354h23.459v12.937h21.326v15.653h-1.478v-1.329h-27.242v-2.451h-16.208zM128.374 64.059h19.535v-5.021h7.763v-7.915h17.487V35.469h-1.478v1.329h-27.242v2.451h-16.208z"/><path fill="#FFF" d="M148.653 57.382v11.886h3.847v21.34h26.786V49.763h-22.911v7.618z"/></g><path d="M44.432 29.037v85.31" stroke="#372E2D" stroke-width=".4" stroke-linecap="square"/><path d="M29.02 106.374h-6.85c-.148 0-.229-.083-.242-.251v-1.78c0-.651.154-1.176.463-1.575.308-.4.814-.599 1.519-.599 1.113 0 1.76.523 1.941 1.57l2.978-1.55a.203.203 0 0 1 .13-.04c.088 0 .167.04.237.12a.39.39 0 0 1 .106.262c0 .121-.118.238-.352.352l-3.018 1.55v1.277h3.088c.08 0 .144.034.191.101.047.067.07.144.07.231a.388.388 0 0 1-.07.237.225.225 0 0 1-.19.095zm-3.662-.664v-1.368c0-1.006-.473-1.509-1.418-1.509-.932 0-1.399.503-1.399 1.51v1.367h2.817zm3.521-4.403a.467.467 0 0 1-.337-.13.441.441 0 0 1-.135-.332c0-.121.046-.227.14-.317a.463.463 0 0 1 .654 0c.094.09.141.196.141.317a.454.454 0 0 1-.463.463zm.151-4.309h-6.85a.216.216 0 0 1-.187-.09.351.351 0 0 1-.065-.212v-1.65c0-.308.023-.576.07-.804.047-.228.131-.441.252-.639.12-.198.296-.349.528-.453.231-.104.518-.156.86-.156.416 0 .768.077 1.056.232.289.154.49.362.604.623.134-.335.335-.591.604-.77.268-.177.643-.266 1.126-.266h.181c.725 0 1.251.181 1.58.544.328.362.493.845.493 1.448v1.891a.31.31 0 0 1-.076.222.234.234 0 0 1-.176.08zm-.362-.654v-1.458c0-.94-.496-1.409-1.489-1.409h-.17c-.953 0-1.43.47-1.43 1.409v1.458h3.09zm-3.662 0v-1.317c0-.477-.099-.824-.297-1.042-.197-.218-.531-.327-1-.327-.437 0-.74.121-.911.362-.171.242-.257.59-.257 1.047v1.277h2.465zM29 92.032a.173.173 0 0 1-.07-.01l-6.831-2.103c-.154-.047-.232-.177-.232-.392 0-.215.078-.349.232-.402l6.83-2.093a.138.138 0 0 0 .03-.005.138.138 0 0 1 .031-.005c.08 0 .15.044.206.13a.49.49 0 0 1 .086.272c0 .128-.057.212-.171.252l-1.55.463v2.786l1.55.463c.114.027.17.114.17.262a.462.462 0 0 1-.08.261c-.053.08-.12.12-.2.12zm-2.012-1.278V88.31l-4.054 1.217 4.054 1.227zm2.032-4.815h-6.85c-.148 0-.229-.084-.242-.252v-1.78c0-.65.154-1.176.463-1.575.308-.399.814-.598 1.519-.598 1.113 0 1.76.523 1.941 1.57l2.978-1.55a.203.203 0 0 1 .13-.04c.088 0 .167.04.237.12a.39.39 0 0 1 .106.262c0 .12-.118.238-.352.352l-3.018 1.55v1.277h3.088c.08 0 .144.033.191.1.047.068.07.145.07.232a.388.388 0 0 1-.07.236.225.225 0 0 1-.19.096zm-3.662-.664v-1.368c0-1.006-.473-1.51-1.418-1.51-.932 0-1.399.504-1.399 1.51v1.368h2.817zM29 81.063a.173.173 0 0 1-.07-.01l-6.831-2.103c-.154-.047-.232-.177-.232-.392 0-.215.078-.349.232-.402l6.83-2.093a.138.138 0 0 0 .03-.005.138.138 0 0 1 .031-.005c.08 0 .15.044.206.13a.49.49 0 0 1 .086.272c0 .128-.057.212-.171.252l-1.55.463v2.786l1.55.463c.114.027.17.114.17.262a.462.462 0 0 1-.08.261c-.053.08-.12.121-.2.121zm-8.682-.946c-.168 0-.305-.099-.412-.296a1.227 1.227 0 0 1-.161-.589c0-.174.057-.396.17-.664.115-.268.172-.49.172-.664a.725.725 0 0 0-.146-.453c-.097-.127-.146-.21-.146-.251 0-.06.025-.11.075-.146a.26.26 0 0 1 .156-.055c.188 0 .33.094.428.281.097.188.146.376.146.564 0 .18-.059.404-.176.669-.118.265-.176.488-.176.669a.79.79 0 0 0 .16.473c.108.147.162.238.162.271 0 .128-.084.191-.252.191zm6.67-.332v-2.444l-4.054 1.217 4.054 1.227zm.201-4.735h-3.118c-.738 0-1.28-.19-1.625-.568-.346-.379-.518-.887-.518-1.524s.172-1.145.518-1.524c.345-.38.887-.569 1.625-.569h3.118c.745 0 1.29.19 1.635.569.345.379.518.887.518 1.524s-.173 1.145-.518 1.524c-.345.379-.89.568-1.635.568zm0-.664c1.026 0 1.54-.476 1.54-1.428s-.514-1.429-1.54-1.429h-3.118c-1.02 0-1.53.477-1.53 1.429 0 .952.51 1.428 1.53 1.428h3.118zm1.841-7.196h-6.86a.214.214 0 0 1-.172-.085.329.329 0 0 1-.07-.217v-1.78c0-.638.172-1.147.518-1.53.345-.382.887-.573 1.625-.573h3.058c.744 0 1.29.191 1.635.573.345.383.518.892.518 1.53v1.78c0 .087-.025.16-.076.217a.229.229 0 0 1-.176.085zm-.362-.664v-1.418c0-.456-.129-.81-.387-1.062-.258-.251-.642-.377-1.152-.377H24.07c-.51 0-.892.126-1.147.377-.255.252-.383.606-.383 1.062v1.418h6.127zm.352-5.077h-6.84a.216.216 0 0 1-.187-.09.351.351 0 0 1-.065-.212v-3.581c0-.168.097-.252.292-.252.087 0 .162.022.226.066a.212.212 0 0 1 .095.186v3.22h2.767v-1.58a.22.22 0 0 1 .085-.186.346.346 0 0 1 .217-.066c.18 0 .271.084.271.252v1.58h2.787v-3.22a.22.22 0 0 1 .09-.181.35.35 0 0 1 .222-.07c.201 0 .302.083.302.25v3.582c0 .08-.024.151-.07.212a.23.23 0 0 1-.192.09zm-1.83-7.307h-5.02c-.162 0-.242-.11-.242-.332 0-.221.08-.332.241-.332h5.02c.51 0 .894-.126 1.152-.377.258-.252.387-.609.387-1.072 0-.462-.129-.82-.387-1.071s-.642-.377-1.152-.377h-5.02c-.16 0-.241-.11-.241-.332 0-.222.08-.332.241-.332h5.02c.745 0 1.29.193 1.635.578.345.386.518.897.518 1.534 0 .638-.173 1.149-.518 1.535-.345.385-.89.578-1.635.578zm1.84-5.831h-6.85a.216.216 0 0 1-.187-.091.351.351 0 0 1-.065-.211v-1.65c0-.309.023-.577.07-.805.047-.228.131-.44.252-.639.12-.198.296-.349.528-.452.231-.104.518-.156.86-.156.416 0 .768.077 1.056.231.289.154.49.362.604.624.134-.336.335-.592.604-.77.268-.178.643-.267 1.126-.267h.181c.725 0 1.251.182 1.58.544.328.362.493.845.493 1.448v1.892a.31.31 0 0 1-.076.221.234.234 0 0 1-.176.08zm-.362-.654v-1.46c0-.938-.496-1.408-1.489-1.408h-.17c-.953 0-1.43.47-1.43 1.409v1.459h3.09zm-3.662 0v-1.318c0-.476-.099-.824-.297-1.041-.197-.218-.531-.327-1-.327-.437 0-.74.12-.911.362-.171.241-.257.59-.257 1.046v1.278h2.465zM29 43.344a.173.173 0 0 1-.07-.01l-6.831-2.102c-.154-.047-.232-.178-.232-.393 0-.214.078-.349.232-.402l6.83-2.093a.138.138 0 0 0 .03-.005.138.138 0 0 1 .031-.005c.08 0 .15.044.206.131a.49.49 0 0 1 .086.272c0 .127-.057.21-.171.251l-1.55.463v2.787l1.55.462c.114.027.17.114.17.262a.462.462 0 0 1-.08.261c-.053.08-.12.121-.2.121zm-2.012-1.277v-2.445l-4.054 1.217 4.054 1.228zm-6.489-.544c-.087 0-.147-.037-.18-.11l-.615-1.127a.109.109 0 0 1-.03-.08.21.21 0 0 1 .086-.177.314.314 0 0 1 .196-.065c.107 0 .181.04.221.12l.574 1.077c.02.027.03.06.03.1a.244.244 0 0 1-.086.182.278.278 0 0 1-.196.08z" fill="#372E2D"/><g fill="#675B59"><path d="M210.911 123.892l-.006-.036c-.006-.036-.043-.03-.05-.066 0 0-.006-.036-.042-.03 0 0-.043-.03-.08-.023l-.035.006-6.141-.787 1.565-4.952c.054-.121-.008-.26-.137-.35a.354.354 0 0 0-.376-.008l-4.132 3.16-2.843-5.483-.006-.037c-.006-.036-.043-.03-.05-.066 0 0-.006-.036-.042-.03-.036.007-.043-.03-.08-.023l-.036.006c-.036.007-.079-.023-.115-.017-.037.007-.073.013-.103.056l-.036.006c-.037.007-.03.043-.067.05 0 0-.036.006-.03.042 0 0-.03.043-.023.079l.006.036-.795 6.125-4.964-1.556c-.122-.053-.261.009-.35.137a.35.35 0 0 0-.01.375l3.158 4.081-5.501 2.84-.036.007c-.037.006-.03.042-.067.049 0 0-.036.006-.03.043.007.036-.03.042-.023.079l.006.036c.006.036-.024.079-.017.115.006.036.013.073.055.102l.007.037c.006.036.043.03.049.066 0 0 .006.036.043.03 0 0 .043.03.079.023l.036-.006 6.141.787-1.565 4.951c-.054.122.008.26.137.35.085.06.158.047.23.034.037-.006.11-.019.14-.062l4.145-3.087 2.842 5.483.006.037c.007.036.043.03.05.066 0 0 .006.036.042.03.037-.007.043.03.08.023l.036-.006c.036-.007.079.023.115.017.037-.007.073-.013.103-.056l.037-.006c.036-.007.03-.043.066-.05 0 0 .036-.006.03-.042 0 0 .03-.043.023-.079l-.006-.036.796-6.125 4.963 1.556c.043.03.116.017.152.01a.526.526 0 0 0 .206-.11.35.35 0 0 0 .008-.376l-3.17-4.154 5.5-2.84.037-.006c.037-.006.03-.043.067-.05 0 0 .036-.006.03-.042-.007-.036.023-.079.023-.079.024-.079.017-.115.011-.151-.006-.037-.013-.073-.056-.103zm-17.857-2.985l4.13 1.292-.194 1.455-1.306.68-2.63-3.427zm4.184 3.302l2.181 1.523-7.712 1.36 5.53-2.883zm-5.43 3.463l7.714-1.36-1.53 2.177-6.183-.817zm3.383 5.35l1.299-4.118 1.46.191.679 1.302-3.438 2.626zm6.2 1.339l-2.885-5.514 1.529-2.177 1.356 7.69zm-1.618-9.178l-2.182-1.523.826-6.167 1.356 7.69zm5.433-6.419l-1.3 4.12-1.459-.192-.68-1.302 3.439-2.626zm-6.2-1.338l2.885 5.514-1.53 2.177-1.356-7.69zm2.974 16.868l-1.356-7.69 2.181 1.523-.825 6.167zm5.362-3.414l-4.13-1.292.194-1.455 1.306-.68 2.63 3.427zm-4.183-3.302l-2.182-1.523 7.713-1.36-5.531 2.883zm-2.248-2.11l1.53-2.177 6.183.818-7.713 1.36z" fill-rule="nonzero"/><path d="M195.711 110.82v-8.337c0-.205.136-.307.406-.307.23 0 .443.188.64.564l3.32 6.522v-6.791c0-.197.135-.295.405-.295s.406.098.406.295v8.348a.27.27 0 0 1-.123.233.482.482 0 0 1-.283.086c-.205 0-.385-.155-.54-.466l-3.42-6.632v6.78a.27.27 0 0 1-.122.232.482.482 0 0 1-.283.086.475.475 0 0 1-.289-.086.274.274 0 0 1-.117-.233z"/></g></g></svg>