<svg xmlns="http://www.w3.org/2000/svg" width="19" height="21" viewBox="0 0 19 21">
    <path fill="#372E2D" fill-rule="nonzero" d="M18.058 13.208a1.867 1.867 0 0 0-2.152.203l-1.514-.856 1.967-.516a.614.614 0 0 0 .444-.753.63.63 0 0 0-.77-.435l-3.18.835-.387-.22a2.98 2.98 0 0 0 .175-.966c0-.34-.07-.661-.175-.967l.387-.219 3.18.835a.63.63 0 0 0 .77-.435.614.614 0 0 0-.444-.753l-1.967-.516 1.514-.857a1.867 1.867 0 0 0 2.152.204c.9-.509 1.21-1.64.69-2.521-.52-.882-1.675-1.185-2.574-.676a1.83 1.83 0 0 0-.904 1.932l-1.507.852.527-1.927a.614.614 0 0 0-.444-.753.63.63 0 0 0-.769.435l-.852 3.115-.386.218a3.143 3.143 0 0 0-1.71-.98v-.424l2.328-2.28a.606.606 0 0 0 0-.87.637.637 0 0 0-.888 0l-1.44 1.41V3.62c.729-.255 1.256-.931 1.256-1.732A1.902 1.902 0 0 0 9.5 0C8.46 0 7.615.869 7.615 1.887c0 .8.527 1.477 1.257 1.732v1.704l-1.44-1.41a.637.637 0 0 0-.889 0 .606.606 0 0 0 0 .87l2.329 2.28v.423a3.143 3.143 0 0 0-1.71.98l-.387-.217-.852-3.115a.629.629 0 0 0-.77-.435.614.614 0 0 0-.443.753l.527 1.927-1.507-.852a1.83 1.83 0 0 0-.903-1.932h-.001C1.925 4.087.772 4.389.252 5.27a1.828 1.828 0 0 0 .69 2.521c.655.37 1.486.352 2.152-.203l1.514.856-1.967.516a.614.614 0 0 0-.444.753.63.63 0 0 0 .77.435l3.18-.835.387.22a2.98 2.98 0 0 0-.175.966c0 .34.07.661.175.967l-.387.219-3.18-.835a.632.632 0 0 0-.77.435c-.09.328.11.666.444.753l1.967.516-1.514.857a1.868 1.868 0 0 0-2.152-.204c-.9.509-1.21 1.64-.69 2.521.523.886 1.677 1.183 2.575.676a1.83 1.83 0 0 0 .903-1.932l1.507-.852-.527 1.927c-.09.328.109.666.444.753a.63.63 0 0 0 .769-.435l.852-3.115.386-.218a3.143 3.143 0 0 0 1.71.981v.423l-2.328 2.28a.606.606 0 0 0 0 .87c.246.24.643.24.888 0l1.44-1.41v1.704c-.729.255-1.256.931-1.256 1.732C7.615 20.131 8.461 21 9.5 21c1.04 0 1.885-.869 1.885-1.887 0-.8-.527-1.477-1.257-1.732v-1.704l1.44 1.41c.246.24.643.24.889 0a.606.606 0 0 0 0-.87l-2.329-2.28v-.423a3.143 3.143 0 0 0 1.71-.98l.387.217.852 3.115a.63.63 0 0 0 .77.435.614.614 0 0 0 .443-.753l-.527-1.927 1.507.852a1.83 1.83 0 0 0 .904 1.932c.898.508 2.054.207 2.574-.676a1.828 1.828 0 0 0-.69-2.521z"/>
</svg>
