<svg xmlns="http://www.w3.org/2000/svg" width="18" height="21" viewBox="0 0 18 21">
    <path fill="#372E2D" fill-rule="nonzero" d="M17.108 12.693a1.761 1.761 0 0 0-2.04.194l-1.434-.815 1.864-.492a.585.585 0 0 0 .42-.717.596.596 0 0 0-.728-.414l-3.013.794-.367-.208c.1-.291.166-.597.166-.92 0-.324-.067-.63-.166-.921l.367-.209 3.013.795a.596.596 0 0 0 .729-.414.585.585 0 0 0-.421-.718l-1.864-.491 1.435-.816c.631.53 1.423.545 2.039.195a1.746 1.746 0 0 0 .654-2.402 1.803 1.803 0 0 0-2.439-.644h-.001a1.746 1.746 0 0 0-.855 1.84l-1.428.812.5-1.835a.585.585 0 0 0-.421-.718.597.597 0 0 0-.73.415l-.807 2.966-.365.208a2.974 2.974 0 0 0-1.62-.934v-.403L11.8 4.67a.58.58 0 0 0 0-.828.602.602 0 0 0-.841 0L9.595 5.184V3.561a1.757 1.757 0 0 0 1.19-1.65c0-.969-.8-1.797-1.785-1.797-.984 0-1.785.828-1.785 1.797 0 .763.499 1.407 1.19 1.65v1.623L7.04 3.841a.602.602 0 0 0-.841 0 .58.58 0 0 0 0 .828l2.206 2.172v.403c-.642.129-1.2.47-1.62.934l-.366-.208-.808-2.966a.595.595 0 0 0-.729-.415.585.585 0 0 0-.42.718l.499 1.835-1.428-.812a1.746 1.746 0 0 0-.855-1.84h-.001a1.803 1.803 0 0 0-2.439.645 1.746 1.746 0 0 0 .654 2.4c.62.353 1.408.336 2.04-.193l1.434.815-1.864.491a.585.585 0 0 0-.42.718.596.596 0 0 0 .728.414l3.013-.795.367.209a2.851 2.851 0 0 0-.166.92c0 .324.067.63.166.921l-.367.209-3.013-.795a.598.598 0 0 0-.729.414.585.585 0 0 0 .421.717l1.864.492-1.435.815a1.762 1.762 0 0 0-2.039-.194 1.746 1.746 0 0 0-.654 2.402 1.804 1.804 0 0 0 2.44.644c.67-.382.988-1.13.855-1.84l1.428-.812-.5 1.835a.585.585 0 0 0 .421.718.596.596 0 0 0 .73-.415l.807-2.966.365-.208c.42.465.979.805 1.62.934v.402L6.2 15.56a.58.58 0 0 0 0 .828c.232.229.609.229.841 0l1.365-1.343v1.623a1.757 1.757 0 0 0-1.19 1.65c0 .969.8 1.796 1.785 1.796.984 0 1.785-.827 1.785-1.796 0-.763-.499-1.408-1.19-1.65v-1.623l1.365 1.343c.232.229.609.229.841 0a.58.58 0 0 0 0-.828l-2.206-2.173v-.402c.642-.129 1.2-.47 1.62-.934l.366.208.808 2.966a.596.596 0 0 0 .729.415.585.585 0 0 0 .42-.718l-.499-1.835 1.428.811c-.133.71.185 1.459.856 1.84.85.484 1.945.197 2.439-.644a1.746 1.746 0 0 0-.654-2.4z"/>
</svg>
