<svg xmlns="http://www.w3.org/2000/svg" width="27" height="18" viewBox="0 0 27 18">
    <path fill="#372E2D" fill-rule="nonzero" d="M26.441 15.902L14.623 8.954v-1.51c1.47-.494 2.536-1.934 2.536-3.63C17.16 1.711 15.52 0 13.502 0c-1.733 0-3.24 1.285-3.583 3.056a1.124 1.124 0 1 0 2.208.428c.14-.716.717-1.234 1.375-1.234.776 0 1.408.702 1.408 1.564 0 .862-.631 1.564-1.412 1.564-.62 0-1.125.504-1.125 1.125v2.451L.555 15.903a1.125 1.125 0 0 0 .57 2.094h24.746a1.125 1.125 0 0 0 .57-2.095zm-21.183-.155l8.24-4.845 8.24 4.845H5.258z"/>
</svg>
