<svg width="49px" height="37px" viewBox="0 0 49 37" version="1.1" xmlns="http://www.w3.org/2000/svg" xmlns:xlink="http://www.w3.org/1999/xlink">
    <g id="Symbols" stroke="none" stroke-width="1" fill="none" fill-rule="evenodd">
        <g id="icon/arrowbemvindo">
            <g transform="translate(24.856161, 18.021807) scale(-1, 1) rotate(90.000000) translate(-24.856161, -18.021807) translate(6.856161, -5.978193)">
                <ellipse id="Oval-2" fill="#EF4F23" cx="17.9781931" cy="29.1724138" rx="17.9781931" ry="18"></ellipse>
                <g id="arrows" transform="translate(18.288538, 19.523311) rotate(90.000000) translate(-18.288538, -19.523311) translate(-1.211462, 10.523311)" fill-rule="nonzero">
                    <path d="M0.860938474,8.24353448 C0.381261682,8.24431069 -1.13686838e-13,8.62620531 -1.13686838e-13,9.10667842 C-1.13686838e-13,9.58715153 0.381261682,9.98146549 0.860938474,9.98146549 L12.9853699,9.72298803 L12.9853699,8.50356436 L0.860938474,8.24353448 Z" id="Shape" fill="#EF4F23"></path>
                    <path d="M30.0708528,0.781293103 C29.7384112,0.436810345 29.1851168,0.436810345 28.8410514,0.781293103 C28.5086098,1.11413793 28.5086098,1.66810345 28.8410514,2.00017241 L35.0768497,8.24353448 L12.019817,8.24353448 C11.5401402,8.24431034 11.5401402,9.98068966 12.019817,9.98068966 L35.0768497,9.98068966 L28.8410514,16.2124138 C28.5086098,16.5568966 28.5086098,17.1116379 28.8410514,17.4437069 C29.1851168,17.7881897 29.7391861,17.7881897 30.0708528,17.4437069 L37.7828777,9.72232759 C38.1269431,9.38948276 38.1269431,8.83551724 37.7828777,8.50344828 L30.0708528,0.781293103 Z" id="Shape" fill="#FFFFFF"></path>
                </g>
            </g>
        </g>
    </g>
</svg>