<svg width="9px" height="18px" viewBox="0 0 9 18" version="1.1" xmlns="http://www.w3.org/2000/svg" xmlns:xlink="http://www.w3.org/1999/xlink">
    <g id="Symbols" stroke="none" stroke-width="1" fill="none" fill-rule="evenodd">
        <g id="icon/bancos" fill="#372E2D">
            <g id="Fill-1">
                <path d="M0.1995,13.3602 C0.5505,13.6882 1.8005,14.6922 3.9135,14.8462 L3.9135,16.8542 C3.9135,17.1832 4.2835,17.2022 4.5165,17.2022 C4.7305,17.2022 4.9075,17.0672 4.9075,16.8542 L4.9075,14.8462 C7.5265,14.6922 8.9715,13.1482 8.9715,11.0432 C8.9715,8.5142 6.6485,7.3562 4.9455,6.6612 L4.9455,3.1862 C5.9055,3.4752 6.9225,4.1702 7.0585,4.2282 C7.5085,4.5372 8.0745,3.4752 8.4655,2.8962 C8.6005,2.6842 8.5435,2.3752 8.3465,2.2582 C7.9965,2.0072 6.6875,1.1392 4.9455,1.0042 L4.9455,0.3672 C4.9455,0.1552 4.7695,0.0002 4.5755,0.0002 L4.3225,0.0002 C4.1275,0.0002 3.9525,0.1552 3.9525,0.3672 L3.9525,0.9852 C1.2725,1.1972 0.0435,2.8192 0.0435,4.6532 C0.0435,7.2012 2.1115,8.2252 3.9315,8.9392 C3.9315,10.1942 3.9135,11.3912 3.9135,12.6462 C2.7385,12.3562 1.5655,11.5062 1.4885,11.4492 C0.9405,11.0432 0.4715,12.1822 0.1005,12.7812 C-0.0935,13.0702 0.0225,13.1862 0.1995,13.3602 Z M3.8925,6.2362 C2.8945,5.7142 2.4255,5.1552 2.4255,4.3822 C2.4255,3.8032 2.9145,3.2442 3.8925,3.1282 L3.8925,6.2362 Z M4.9455,12.7602 L4.9455,9.3822 C5.9255,9.9432 6.4145,10.5612 6.4145,11.3142 C6.4145,12.0662 5.7885,12.6262 4.9455,12.7602 Z"></path>
            </g>
        </g>
    </g>
</svg>