<svg xmlns="http://www.w3.org/2000/svg" width="27" height="17" viewBox="0 0 27 17">
    <path fill="#372E2D" fill-rule="nonzero" d="M21.853 5.791c-.211 0-.419.014-.623.04l-1.283-4.392A.835.835 0 0 0 19.314.06H15.87a.835.835 0 0 0 0 1.67h2.181l-.887 1.411a.779.779 0 0 0-.12-.007l-7.455.109a.833.833 0 0 0-.533-1.478H7.045a.835.835 0 0 0 0 1.67h.15c.02.074.05.147.092.217l.336.552-.926 1.826A5.152 5.152 0 0 0 0 10.938a5.152 5.152 0 0 0 5.146 5.146 5.154 5.154 0 0 0 5.02-4.02l2.754.16.049.001a.835.835 0 0 0 .706-.39l5.167-8.225.785 2.688a5.153 5.153 0 0 0-2.92 4.64 5.152 5.152 0 0 0 5.146 5.146 5.152 5.152 0 0 0 5.146-5.146 5.152 5.152 0 0 0-5.146-5.147zm-13.21.094l2.783 4.58-1.162-.068a5.147 5.147 0 0 0-2.079-3.609l.458-.903zM1.67 10.938A3.48 3.48 0 0 1 5.927 7.55L4.4 10.56a.835.835 0 0 0 .697 1.21l3.37.195a3.483 3.483 0 0 1-3.322 2.448 3.48 3.48 0 0 1-3.476-3.476zm4.797-.76l.948-1.87c.585.505 1 1.2 1.148 1.99l-2.096-.12zm6.512-.374l-2.975-4.896 6.107-.089-3.132 4.985zm8.874 4.61a3.48 3.48 0 0 1-3.477-3.476c0-1.28.696-2.4 1.73-3.004l.945 3.238a.835.835 0 0 0 1.603-.469l-.946-3.238a3.48 3.48 0 0 1 3.621 3.473 3.48 3.48 0 0 1-3.476 3.476z"/>
</svg>
