<svg xmlns="http://www.w3.org/2000/svg" width="30" height="32" viewBox="0 0 30 32">
    <g fill="none" fill-rule="evenodd">
        <path fill="#372E2D" d="M15 0c8.284 0 15 7.04 15 15.726 0 8.685-6.716 15.726-15 15.726-8.284 0-15-7.041-15-15.726S6.716 0 15 0zm-4.677 16.74h2.093a.193.193 0 0 0 .193-.193v-2.094a.193.193 0 0 0-.193-.192h-2.093a.193.193 0 0 0-.193.192v2.094c0 .106.087.192.193.192zm3.304 0h2.094a.193.193 0 0 0 .192-.193v-2.094a.193.193 0 0 0-.192-.192h-2.094a.193.193 0 0 0-.192.192v2.094c0 .106.086.192.192.192zm3.305 0h2.093a.193.193 0 0 0 .192-.193v-2.094a.193.193 0 0 0-.192-.192h-2.093a.193.193 0 0 0-.193.192v2.094c0 .106.086.192.193.192zm-6.61 4.13h2.094a.193.193 0 0 0 .193-.193v-2.093a.193.193 0 0 0-.193-.193h-2.093a.193.193 0 0 0-.193.193v2.093c0 .106.087.193.193.193zm3.305 0h2.094a.193.193 0 0 0 .192-.193v-2.093a.193.193 0 0 0-.192-.193h-2.094a.193.193 0 0 0-.192.193v2.093c0 .106.086.193.192.193zm3.305 0h2.093a.193.193 0 0 0 .192-.193v-2.093a.193.193 0 0 0-.192-.193h-2.093a.193.193 0 0 0-.193.193v2.093c0 .106.086.193.193.193z"/>
        <path fill="#D2E5E2" d="M22.057 8.299c.713 0 1.29.588 1.29 1.313v14.075c0 .725-.577 1.313-1.29 1.313H7.291C6.578 25 6 24.412 6 23.687V9.612c0-.725.578-1.313 1.29-1.313h1.42v-.986C8.71 6.588 9.289 6 10.002 6h.052c.713 0 1.29.588 1.29 1.313v.986h6.661v-.986c0-.725.578-1.313 1.29-1.313h.052c.713 0 1.291.588 1.291 1.313v.986h1.42zm-.878 14.626V12.264H8.17v10.661h13.01z"/>
    </g>
</svg>
