<svg xmlns="http://www.w3.org/2000/svg" width="26" height="12" viewBox="0 0 26 12">
    <path fill="#372E2D" fill-rule="nonzero" d="M25.037 4.65c-.477-.17-3.797-.939-3.797-.939S15.086 0 14.347 0L8.542.002c-1.238 0-2.272 1-3.47 2.159-.564.546-1.187 1.146-1.875 1.68l-2.56.361A.968.968 0 0 0 0 5.128v3.11c0 .537.41.972.916.972h1.76C2.802 10.77 4.04 12 5.545 12c1.504 0 2.743-1.23 2.87-2.79h8.399c.128 1.56 1.366 2.79 2.87 2.79 1.505 0 2.743-1.23 2.871-2.79h1.445c1.145 0 1.705-.525 1.845-1.017.355-1.246.1-3.22-.809-3.543zM5.546 10.527c-.823 0-1.493-.71-1.493-1.583 0-.874.67-1.584 1.493-1.584.823 0 1.493.71 1.493 1.584 0 .873-.67 1.583-1.493 1.583zm5.543-6.816H6.08c.362-.303.697-.625 1.005-.923.811-.784 1.512-1.462 2.35-1.462h1.653V3.71zm1.219-2.386h1.45c.69 0 3.489 1.724 4.54 2.386h-5.99V1.325zm7.378 9.202c-.824 0-1.494-.71-1.494-1.583 0-.874.67-1.584 1.494-1.584.823 0 1.493.71 1.493 1.584 0 .873-.67 1.583-1.493 1.583z"/>
</svg>
