<svg width="82px" height="24px" viewBox="0 0 82 24" version="1.1" xmlns="http://www.w3.org/2000/svg" xmlns:xlink="http://www.w3.org/1999/xlink">
    <g id="Symbols" stroke="none" stroke-width="1" fill="none" fill-rule="evenodd">
        <g id="centro">
            <path d="M78,8 L82,12 L78,16 L78,24 L0,24 L0,0 L78,0 L78,8 Z" id="Combined-Shape" fill="#675B59"></path>
            <path d="M19.313,13.396 L19.313,9.904 C19.313,8.9839954 19.5589975,8.30800216 20.051,7.876 C20.5430025,7.44399784 21.184996,7.228 21.977,7.228 C22.7930041,7.228 23.4509975,7.42999798 23.951,7.834 C24.4510025,8.23800202 24.701,8.7599968 24.701,9.4 C24.701,9.65600128 24.6530005,9.82999954 24.557,9.922 C24.4609995,10.0140005 24.2970012,10.06 24.065,10.06 C23.6489979,10.06 23.437,9.9200014 23.429,9.64 C23.3809998,8.78399572 22.9130044,8.356 22.025,8.356 C21.0649952,8.356 20.585,8.87199484 20.585,9.904 L20.585,13.396 C20.585,14.4280052 21.0729951,14.944 22.049,14.944 C22.3370014,14.944 22.576999,14.9020004 22.769,14.818 C22.961001,14.7339996 23.0989996,14.6120008 23.183,14.452 C23.2670004,14.2919992 23.3249998,14.1520006 23.357,14.032 C23.3890002,13.9119994 23.4129999,13.7640009 23.429,13.588 C23.4530001,13.3079986 23.660998,13.168 24.053,13.168 C24.2850012,13.168 24.4509995,13.2139995 24.551,13.306 C24.6510005,13.3980005 24.701,13.5719987 24.701,13.828 C24.701,14.4920033 24.4490025,15.0319979 23.945,15.448 C23.4409975,15.8640021 22.7810041,16.072 21.965,16.072 C21.172996,16.072 20.5330024,15.8560022 20.045,15.424 C19.5569976,14.9919978 19.313,14.3160046 19.313,13.396 Z M26.264,15.58 L26.264,7.648 C26.264,7.51999936 26.3199994,7.41800038 26.432,7.342 C26.5440006,7.26599962 26.6759992,7.228 26.828,7.228 L31.1,7.228 C31.2360007,7.228 31.3399996,7.28399944 31.412,7.396 C31.4840004,7.50800056 31.52,7.63599928 31.52,7.78 C31.52,7.9400008 31.4820004,8.07599944 31.406,8.188 C31.3299996,8.30000056 31.2280006,8.356 31.1,8.356 L27.536,8.356 L27.536,11.104 L29.384,11.104 C29.5120006,11.104 29.6139996,11.1539995 29.69,11.254 C29.7660004,11.3540005 29.804,11.4759993 29.804,11.62 C29.804,11.7480006 29.7680004,11.8619995 29.696,11.962 C29.6239996,12.0620005 29.5200007,12.112 29.384,12.112 L27.536,12.112 L27.536,14.872 L31.1,14.872 C31.2280006,14.872 31.3299996,14.9279994 31.406,15.04 C31.4820004,15.1520006 31.52,15.2879992 31.52,15.448 C31.52,15.5920007 31.4840004,15.7199994 31.412,15.832 C31.3399996,15.9440006 31.2360007,16 31.1,16 L26.828,16 C26.6759992,16 26.5440006,15.9620004 26.432,15.886 C26.3199994,15.8099996 26.264,15.7080006 26.264,15.58 Z M32.915,15.58 L32.915,7.648 C32.915,7.3679986 33.1269979,7.228 33.551,7.228 C33.7750011,7.228 33.9549993,7.2779995 34.091,7.378 C34.2270007,7.4780005 34.3669993,7.6679986 34.511,7.948 L37.175,13.144 L37.175,7.636 C37.175,7.49999932 37.2369994,7.39800034 37.361,7.33 C37.4850006,7.26199966 37.6349991,7.228 37.811,7.228 C37.9870009,7.228 38.1369994,7.26199966 38.261,7.33 C38.3850006,7.39800034 38.447,7.49999932 38.447,7.636 L38.447,15.58 C38.447,15.7080006 38.3850006,15.8099996 38.261,15.886 C38.1369994,15.9620004 37.9870009,16 37.811,16 C37.4749983,16 37.2230008,15.8440016 37.055,15.532 L34.187,10.072 L34.187,15.58 C34.187,15.7080006 34.1250006,15.8099996 34.001,15.886 C33.8769994,15.9620004 33.7270009,16 33.551,16 C33.3829992,16 33.2350006,15.9620004 33.107,15.886 C32.9789994,15.8099996 32.915,15.7080006 32.915,15.58 Z M39.782,7.804 C39.782,7.65199924 39.8179996,7.51800058 39.89,7.402 C39.9620004,7.28599942 40.0659993,7.228 40.202,7.228 L45.182,7.228 C45.3180007,7.228 45.4219996,7.28399944 45.494,7.396 C45.5660004,7.50800056 45.602,7.63999924 45.602,7.792 C45.602,7.96000084 45.5640004,8.10199942 45.488,8.218 C45.4119996,8.33400058 45.3100006,8.392 45.182,8.392 L43.334,8.392 L43.334,15.58 C43.334,15.7080006 43.2700006,15.8099996 43.142,15.886 C43.0139994,15.9620004 42.8660008,16 42.698,16 C42.5219991,16 42.3720006,15.9620004 42.248,15.886 C42.1239994,15.8099996 42.062,15.7080006 42.062,15.58 L42.062,8.392 L40.202,8.392 C40.0739994,8.392 39.9720004,8.33400058 39.896,8.218 C39.8199996,8.10199942 39.782,7.9640008 39.782,7.804 Z M46.937,15.58 L46.937,7.636 C46.937,7.52399944 46.9769996,7.4280004 47.057,7.348 C47.1370004,7.2679996 47.2369994,7.228 47.357,7.228 L49.637,7.228 C51.4770092,7.228 52.397,8.04399184 52.397,9.676 C52.397,10.3560034 52.2450015,10.8899981 51.941,11.278 C51.6369985,11.6660019 51.2250026,11.9239994 50.705,12.052 L52.385,15.208 C52.4170002,15.2640003 52.433,15.3239997 52.433,15.388 C52.433,15.5480008 52.3510008,15.6959993 52.187,15.832 C52.0229992,15.9680007 51.8490009,16.036 51.665,16.036 C51.456999,16.036 51.2890006,15.9120012 51.161,15.664 L49.409,12.232 L48.197,12.232 L48.197,15.58 C48.197,15.7080006 48.1350006,15.8099996 48.011,15.886 C47.8869994,15.9620004 47.7370009,16 47.561,16 C47.3929992,16 47.2470006,15.9620004 47.123,15.886 C46.9989994,15.8099996 46.937,15.7080006 46.937,15.58 Z M48.197,11.212 L49.637,11.212 C50.629005,11.212 51.125,10.7360048 51.125,9.784 C51.125,8.83199524 50.629005,8.356 49.637,8.356 L48.197,8.356 L48.197,11.212 Z M53.936,13.396 L53.936,9.904 C53.936,8.9839954 54.1799976,8.30800216 54.668,7.876 C55.1560024,7.44399784 55.8079959,7.228 56.624,7.228 C57.4400041,7.228 58.0939975,7.44399784 58.586,7.876 C59.0780025,8.30800216 59.324,8.9839954 59.324,9.904 L59.324,13.396 C59.324,14.3160046 59.0780025,14.9919978 58.586,15.424 C58.0939975,15.8560022 57.4400041,16.072 56.624,16.072 C55.8079959,16.072 55.1560024,15.8560022 54.668,15.424 C54.1799976,14.9919978 53.936,14.3160046 53.936,13.396 Z M55.208,13.396 C55.208,14.4280052 55.6799953,14.944 56.624,14.944 C57.0800023,14.944 57.4319988,14.8160013 57.68,14.56 C57.9280012,14.3039987 58.052,13.9160026 58.052,13.396 L58.052,9.904 C58.052,9.3839974 57.9280012,8.99600128 57.68,8.74 C57.4319988,8.48399872 57.0800023,8.356 56.624,8.356 C55.6799953,8.356 55.208,8.87199484 55.208,9.904 L55.208,13.396 Z" fill="#FFFFFF"></path>
        </g>
    </g>
</svg>