<svg width="15px" height="15px" viewBox="0 0 15 15" version="1.1" xmlns="http://www.w3.org/2000/svg" xmlns:xlink="http://www.w3.org/1999/xlink">
    <g id="Symbols" stroke="none" stroke-width="1" fill="none" fill-rule="evenodd">
        <g id="icon/close" fill="#FFFFFF">
            <path d="M14.6011779,14.3608293 C14.0694151,14.8925921 13.2074283,14.8925921 12.6756656,14.3608293 L7.6201743,9.30533805 L2.32433445,14.6011779 C1.79257166,15.1329407 0.930584871,15.1329407 0.398822088,14.6011779 C-0.132940696,14.0694151 -0.132940696,13.2074283 0.398822088,12.6756656 L5.69466195,7.3798257 L0.639170695,2.32433445 C0.107407912,1.79257166 0.107407912,0.929903997 0.639170695,0.398822088 C1.17093348,-0.132940696 2.03292027,-0.132940696 2.56468305,0.398822088 L7.6201743,5.45431334 L12.4346361,0.639851569 C12.9663989,0.108088786 13.8283856,0.108088786 14.3601484,0.639851569 C14.8919112,1.17161435 14.8919112,2.03360114 14.3601484,2.56536393 L9.54568666,7.3798257 L14.6011779,12.4353169 C15.1329407,12.9670797 15.1329407,13.8290665 14.6011779,14.3608293 Z"></path>
        </g>
    </g>
</svg>