<svg xmlns="http://www.w3.org/2000/svg" width="20" height="18" viewBox="0 0 20 18">
    <g fill="#372E2D" fill-rule="nonzero">
        <path d="M3.505 15.096l-.782 1.868a.18.18 0 0 0 .166.249h2.227a.467.467 0 0 0 .43-.287l.752-1.795h-2.22c-.193 0-.384-.012-.573-.035zM10.596 3.038v2.315h5.313a4.598 4.598 0 0 1 3.064 1.16V3.038a.568.568 0 0 0-.568-.568h-7.241a.568.568 0 0 0-.568.568z"/>
        <path d="M18.9 13.278a4.064 4.064 0 0 0 1.088-2.773V9.98a4.063 4.063 0 0 0-1.015-2.692A4.069 4.069 0 0 0 15.909 5.9H9.466V1.141l2.41-.005c.124.28.404.475.73.475h2.008a.797.797 0 1 0 0-1.593L8.909.022A.562.562 0 0 0 8.351.6V5.9H4.08A4.079 4.079 0 0 0 0 9.98v.526a4.079 4.079 0 0 0 4.079 4.079h8.259a3.355 3.355 0 0 1 .983-2.588 3.366 3.366 0 0 1 2.388-.99 3.356 3.356 0 0 1 2.387.99 3.365 3.365 0 0 1 .804 1.282z"/>
        <path d="M18.453 13.693a2.83 2.83 0 1 0-5.49 1.382 2.83 2.83 0 0 0 5.49-1.382zm-2.744 1.623a.93.93 0 0 1-.912-.732.933.933 0 1 1 .911.733z"/>
    </g>
</svg>
