<svg xmlns="http://www.w3.org/2000/svg" width="17" height="21" viewBox="0 0 17 21">
    <path fill="#372E2D" fill-rule="nonzero" d="M14.959 12.018c-.56-.191-1.069-.283-1.526-.275-.457.007-.92.086-1.39.234-.468.148-.86.312-1.176.492-.315.18-.62.385-.916.615-.296.23-.49.39-.585.48-.095.09-.166.163-.213.217.394-1.062.682-2.168.863-3.316l.201.035c.134.024.317.041.55.053.232.012.499.016.798.012.3-.004.615-.041.946-.112.331-.07.664-.164 1-.281.335-.117.656-.295.963-.533.308-.238.582-.518.822-.838.24-.32.438-.729.591-1.225a6.09 6.09 0 0 0 .255-1.658 5.167 5.167 0 0 0-1.567-.28c-.509-.009-.95.048-1.325.169-.374.12-.734.295-1.082.521a5.656 5.656 0 0 0-.84.65 5.844 5.844 0 0 0-.596.68 8.07 8.07 0 0 0-.36.504c-.056.09-.095.162-.12.217.009-.203.013-.483.013-.838s-.004-.553-.012-.592l.083-.176c.063-.117.13-.28.2-.492.072-.21.147-.453.226-.726.078-.274.13-.573.153-.897.024-.324.026-.658.006-1.002-.02-.344-.1-.691-.242-1.043a4.335 4.335 0 0 0-.568-.996c-.236-.312-.57-.611-.999-.896A6.486 6.486 0 0 0 7.604 0c-.402.531-.678 1.072-.828 1.623-.15.55-.197 1.047-.142 1.488.056.442.186.881.39 1.319.206.437.418.8.64 1.09.22.289.47.568.75.837.28.27.473.444.58.522l.254.187c0 .57-.048 1.332-.143 2.285l-.047-.187a5.26 5.26 0 0 0-.189-.463c-.087-.191-.195-.41-.325-.656a4.486 4.486 0 0 0-.497-.738 7.987 7.987 0 0 0-.662-.715c-.24-.23-.53-.426-.869-.586a4.55 4.55 0 0 0-1.088-.352c-.386-.074-.83-.078-1.33-.011-.501.066-1.027.209-1.579.427.047.547.16 1.045.337 1.495.177.449.392.818.644 1.107.253.289.548.543.887.762.34.218.67.384.994.498.323.113.672.203 1.046.27.375.066.696.105.964.116a11.381 11.381 0 0 0 1.372-.023c.087-.012.158-.021.213-.03-.205 1.25-.517 2.387-.935 3.41a6.646 6.646 0 0 0-.668-.96c-.248-.297-.597-.598-1.046-.903a4.679 4.679 0 0 0-1.473-.662c-.532-.136-1.192-.166-1.98-.088-.789.079-1.632.301-2.531.669.26.648.554 1.218.88 1.71.328.492.661.883 1 1.173.34.289.702.519 1.088.691a4.23 4.23 0 0 0 1.1.334c.347.05.705.06 1.076.03.37-.032.698-.083.982-.153.283-.07.567-.16.85-.27-.803 1.469-1.795 2.62-2.973 3.451-1.179.832-2.45 1.252-3.814 1.26a.527.527 0 0 0-.378.147.488.488 0 0 0-.154.369c0 .148.051.273.154.375A.517.517 0 0 0 .532 21c1.64-.008 3.155-.525 4.547-1.553 1.391-1.027 2.532-2.431 3.423-4.212l.201.117c.127.078.308.165.544.263.237.098.51.205.822.322a4.94 4.94 0 0 0 1.023.258c.37.055.75.088 1.141.1.39.011.79-.045 1.2-.17.41-.125.8-.307 1.17-.545.371-.238.73-.584 1.077-1.038.347-.452.647-.991.899-1.616a5.431 5.431 0 0 0-1.62-.908z"/>
</svg>
