<svg xmlns="http://www.w3.org/2000/svg" width="19" height="18" viewBox="0 0 19 18">
    <path fill="#372E2D" fill-rule="nonzero" d="M18 3.294a.62.62 0 0 0 .62-.62V.63A.62.62 0 0 0 18 .01H.62A.62.62 0 0 0 0 .63v2.045c0 .342.277.62.62.62h.402v11.03H.62a.62.62 0 0 0-.62.619v2.045c0 .342.277.62.62.62H18a.62.62 0 0 0 .62-.62v-2.045a.62.62 0 0 0-.62-.62h-.402v-2.86a.62.62 0 0 0 .51-.61v-4.09a.62.62 0 0 0-.51-.609v-2.86H18zM4.09 14.324H2.262V9.427H4.09v4.895zm0-6.135H2.262V3.294H4.09v4.895zm3.067 6.134H5.329V9.428h1.828v4.895zm0-6.134H5.329V3.294h1.828v4.895zm3.067 6.134H8.396V9.428h1.828v4.895zm0-6.134H8.396V3.294h1.828v4.895zm3.067 6.134h-1.828V9.428h1.317v1.425c0 .305.22.558.511.61v2.86zm0-8.169a.62.62 0 0 0-.511.61v1.425h-1.317V3.294h1.828v2.86zm3.067 8.17H14.53v-2.851h1.828v2.85zm-1.72-5.825a.807.807 0 0 1 1.612 0 .804.804 0 0 1-.31.633v.296a.496.496 0 0 1-.991 0v-.296a.804.804 0 0 1-.31-.633zm1.72-2.355H14.53v-2.85h1.828v2.85z"/>
</svg>
