<svg xmlns="http://www.w3.org/2000/svg" width="21" height="20" viewBox="0 0 21 20">
    <g fill="none" fill-rule="nonzero">
        <path fill="#000" d="M8.391 4.545h-.348c-.408 0-.739.234-.739.521v2.207H9.13V5.066c0-.287-.33-.52-.739-.52zM12.956 4.545h-.348c-.408 0-.738.234-.738.521v2.207h1.826V5.066c-.001-.287-.332-.52-.74-.52z"/>
        <path fill="#372E2D" d="M10.5 0C4.71 0 0 4.588 0 10.228c0 2.722 1.086 5.285 3.057 7.214a10.58 10.58 0 0 0 4.179 2.509c.104.033.21.049.314.049.426 0 .822-.264.961-.68a.98.98 0 0 0-.647-1.242 8.552 8.552 0 0 1-3.372-2.026c-1.592-1.558-2.469-3.626-2.469-5.824 0-4.554 3.803-8.258 8.478-8.258s8.478 3.704 8.478 8.258c0 2.206-.882 4.278-2.482 5.837-.614.537-2.138 1.617-3.054 1.617-.47 0-.82-.144-1.106-.453-.724-.785-.883-2.375-.876-3.483 1.755-.086 3.152-1.496 3.152-3.226V7.454H6.388v3.066c0 1.697 1.342 3.086 3.048 3.222-.01 1.32.18 3.483 1.392 4.8.668.728 1.573 1.111 2.615 1.111 1.957 0 4.184-1.925 4.43-2.143l.033-.03C19.902 15.546 21 12.97 21 10.23 21 4.587 16.29 0 10.5 0z"/>
    </g>
</svg>
