<svg width="13px" height="17px" viewBox="0 0 13 17" version="1.1" xmlns="http://www.w3.org/2000/svg" xmlns:xlink="http://www.w3.org/1999/xlink">
    <g id="Symbols" stroke="none" stroke-width="1" fill="none" fill-rule="evenodd">
        <g id="icon/end" fill="#EF4F23">
            <path d="M6.49994919,17 C6.37638451,16.8938088 6.23950818,16.7740242 6.09297836,16.6428949 C6.09043796,16.6405442 6.08820242,16.6388067 6.08606849,16.6366604 C4.04034143,14.8083111 0,10.6801397 0,6.59877835 C-0.000203231379,3.01730274 2.89604715,0.0581547748 6.45564475,0.00143087319 C6.47058226,0.00143087319 6.48521492,0.000715436597 6.49994919,0 C6.51458185,0.000715436597 6.5291129,0.00143087319 6.54415202,0.00143087319 C10.1040545,0.0579503643 13,3.01730274 13,6.59877835 C13,10.9774547 8.3484402,15.4113219 6.49994919,17 Z M6.8736237,3.40700539 C4.99505445,3.40700539 3.47214011,4.93875514 3.47214011,6.82822319 C3.47214011,8.71769124 4.99505445,10.2493388 6.8736237,10.2493388 C8.75219295,10.2493388 10.2751073,8.71769124 10.2751073,6.82822319 C10.2751073,4.93875514 8.75219295,3.40700539 6.8736237,3.40700539 Z"></path>
        </g>
    </g>
</svg>