<svg width="30px" height="30px" viewBox="0 0 30 30" version="1.1" xmlns="http://www.w3.org/2000/svg" xmlns:xlink="http://www.w3.org/1999/xlink">
    <g id="1366-Desktop:-05-Contato-Erro" stroke="none" stroke-width="1" fill="none" fill-rule="evenodd" transform="translate(-1066.000000, -114.000000)">
        <g id="LAT-DIR" transform="translate(1037.000000, 96.000000)" fill="#372E2D">
            <g id="DADOS" transform="translate(29.000000, 0.000000)">
                <g id="Group-3">
                    <g id="Page-1" transform="translate(0.000000, 18.000000)">
                        <path d="M15.3418211,10 C13.4962022,10 12,11.4962022 12,13.3418211 C12,15.18744 13.4962022,16.6835423 15.3418211,16.6835423 C17.18744,16.6835423 18.6836422,15.18744 18.6836422,13.3418211 C18.6836422,11.4962022 17.18744,10 15.3418211,10" id="Fill-1"></path>
                        <path d="M14.9747009,23.2775399 C14.8533035,23.1738131 14.718828,23.0568084 14.5748684,22.9287223 C14.5723725,22.9264261 14.5701762,22.9247289 14.5680797,22.9226324 C12.558235,21.1367139 8.58876172,17.1043456 8.58876172,13.117701 C8.58856205,9.61934125 11.4340118,6.72886667 14.9311735,6.67345917 C14.945849,6.67345917 14.960225,6.67276034 14.9747009,6.6720615 C14.9890769,6.67276034 15.003353,6.67345917 15.0181284,6.67345917 C18.5155896,6.728667 21.3607399,9.61934125 21.3607399,13.117701 C21.3607399,17.3947608 16.7907691,21.7257306 14.9747009,23.2775399 M14.9745012,0 C6.7044075,0 0,6.70460717 0,14.9747009 C0,23.2445949 6.7044075,29.9497013 14.9745012,29.9497013 C23.2445949,29.9497013 29.9495016,23.2445949 29.9495016,14.9747009 C29.9495016,6.70460717 23.2445949,0 14.9745012,0" id="Fill-3"></path>
                    </g>
                </g>
            </g>
        </g>
    </g>
</svg>