<svg width="18px" height="19px" viewBox="0 0 18 19" version="1.1" xmlns="http://www.w3.org/2000/svg" xmlns:xlink="http://www.w3.org/1999/xlink">
    <g id="Symbols" stroke="none" stroke-width="1" fill="none" fill-rule="evenodd">
        <g id="icon/escola" fill="#372E2D">
            <g>
                <path d="M8.5965,3.0658 C9.4615,3.0658 10.1485,2.3688 10.1485,1.5328 C10.1485,0.6768 9.4425,0.0008 8.5965,0.0008 C7.7495,0.0008 7.0435,0.6968 7.0435,1.5328 C7.0435,2.3688 7.7305,3.0658 8.5965,3.0658" id="Fill-1"></path>
                <g id="Group-5" transform="translate(0.000000, 3.075100)">
                    <path d="M17.744,11.2583 L16.817,8.2923 C16.777,8.1333 16.656,8.0323 16.495,7.9923 L16.173,7.9523 C15.91,8.1333 15.608,8.2323 15.266,8.2323 C14.943,8.2323 14.641,8.1333 14.38,7.9523 L12.485,6.2803 C12.506,6.2013 12.525,6.1213 12.506,6.0423 L11.055,0.6283 C10.994,0.3893 10.793,0.2103 10.551,0.1703 L9.624,0.0703 C9.321,0.2503 8.979,0.3493 8.597,0.3493 C8.233,0.3493 7.871,0.2503 7.568,0.0703 L6.641,0.1703 C6.4,0.2103 6.198,0.3893 6.139,0.6283 L4.687,6.0423 C4.647,6.2223 4.727,6.4013 4.868,6.4803 L3.217,7.9733 C2.974,8.1333 2.673,8.2323 2.349,8.2323 C2.027,8.2323 1.725,8.1333 1.483,7.9733 L1.383,7.9923 C1.222,8.0133 1.1,8.1333 1.06,8.2923 L0.013,11.2983 C-0.027,11.3973 0.032,11.5173 0.153,11.5573 L0.295,11.5963 C0.415,11.6363 0.536,11.5763 0.576,11.4573 L1.303,9.9243 C1.282,10.0643 1.262,10.2233 1.241,10.3623 L0.799,12.5123 C0.778,12.7513 0.96,12.9703 1.201,12.9703 L1.402,12.9703 L1.464,14.7803 C1.464,14.9013 1.564,15.0003 1.685,15.0003 L1.866,15.0003 C1.987,15.0003 2.089,14.9013 2.089,14.7803 L2.249,12.9893 L2.512,12.9893 L2.673,14.7803 C2.673,14.9013 2.773,15.0003 2.894,15.0003 L3.075,15.0003 C3.196,15.0003 3.297,14.9013 3.297,14.7803 L3.357,12.9703 L3.558,12.9703 C3.801,12.9703 4.003,12.7513 3.962,12.5123 L3.518,10.3623 C3.478,10.1433 3.438,9.9043 3.438,9.6663 L3.397,8.9883 L5.392,6.7793 C5.432,6.7193 5.453,6.6593 5.432,6.6003 C5.573,6.5793 5.716,6.4803 5.756,6.3213 L6.601,3.3353 C6.601,3.6933 6.581,4.0523 6.561,4.4093 L6.4,6.3813 C6.4,6.5793 6.561,6.7383 6.763,6.7593 L6.944,14.6423 C6.965,14.8213 7.105,14.9813 7.286,14.9813 L7.931,14.9813 C8.112,14.9813 8.274,14.8213 8.274,14.6213 L8.556,7.6753 C8.556,7.5553 8.637,7.5553 8.637,7.6753 L8.919,14.6213 C8.919,14.8213 9.081,14.9813 9.262,14.9813 L9.906,14.9813 C10.088,14.9813 10.228,14.8413 10.249,14.6423 L10.431,6.7593 C10.632,6.7593 10.793,6.6003 10.793,6.3813 L10.651,4.3693 C10.632,4.0313 10.611,3.6933 10.611,3.3353 L11.458,6.3013 C11.499,6.4803 11.68,6.6003 11.86,6.5793 C11.86,6.6003 11.881,6.6193 11.881,6.6193 L13.996,8.8893 C13.996,9.3073 13.996,9.8843 13.976,10.1623 L13.876,11.4173 C13.876,11.5573 13.976,11.6553 14.117,11.6553 L14.219,14.7413 C14.219,14.8613 14.319,14.9613 14.439,14.9613 L14.843,14.9613 C14.964,14.9613 15.064,14.8613 15.064,14.7413 L15.245,12.2533 C15.245,12.1743 15.306,12.1743 15.306,12.2533 L15.487,14.7413 C15.487,14.8613 15.589,14.9613 15.71,14.9613 L16.112,14.9613 C16.233,14.9613 16.313,14.8613 16.335,14.7413 L16.434,11.6553 C16.556,11.6553 16.677,11.5573 16.677,11.4173 L16.575,10.1433 L17.079,11.3783 C17.119,11.5173 17.261,11.5963 17.401,11.5573 L17.584,11.4963 C17.704,11.5173 17.784,11.3973 17.744,11.2583" id="Fill-3"></path>
                </g>
                <path d="M15.2654,8.6195 C15.9114,8.6195 16.4344,9.1375 16.4344,9.7745 C16.4344,10.4115 15.9114,10.9295 15.2654,10.9295 C14.6204,10.9295 14.0964,10.4115 14.0964,9.7745 C14.0964,9.1375 14.6204,8.6195 15.2654,8.6195" id="Fill-6"></path>
                <path d="M2.3699,8.6195 C3.0149,8.6195 3.5389,9.1375 3.5389,9.7745 C3.5389,10.4115 3.0149,10.9295 2.3699,10.9295 C1.7249,10.9295 1.2009,10.4115 1.2009,9.7745 C1.2009,9.1375 1.7249,8.6195 2.3699,8.6195" id="Fill-8"></path>
            </g>
        </g>
    </g>
</svg>