<svg xmlns="http://www.w3.org/2000/svg" width="19" height="16" viewBox="0 0 19 16">
    <path fill="#372E2D" fill-rule="nonzero" d="M9.506 14.232a.856.856 0 0 1-.863.857.865.865 0 0 1-.55-.197l-4.718-3.885H.863A.86.86 0 0 1 0 10.15V6.734a.86.86 0 0 1 .863-.858h2.512L8.092 1.99a.865.865 0 0 1 1.414.66v11.58zm3.316-1.34a.865.865 0 0 1-.672-.249l-.116-.115a.853.853 0 0 1-.083-1.117 4.928 4.928 0 0 0 .987-2.969 4.912 4.912 0 0 0-1.12-3.141.853.853 0 0 1 .06-1.147l.115-.115a.866.866 0 0 1 1.278.064 6.755 6.755 0 0 1 1.553 4.34 6.783 6.783 0 0 1-1.373 4.107c-.15.199-.38.324-.63.342zm3.567 2.65a.866.866 0 0 1-1.27.053l-.113-.113a.854.854 0 0 1-.05-1.158 9.095 9.095 0 0 0-.152-11.94.854.854 0 0 1 .034-1.173l.113-.113a.865.865 0 0 1 1.256.036 10.955 10.955 0 0 1 .182 14.408z"/>
</svg>
