<svg width="30px" height="32px" viewBox="0 0 30 32" version="1.1" xmlns="http://www.w3.org/2000/svg" xmlns:xlink="http://www.w3.org/1999/xlink">
    <g id="Symbols" stroke="none" stroke-width="1" fill="none" fill-rule="evenodd">
        <g id="icon/facebook" fill="#372E2D" fill-rule="nonzero">
            <g id="Shape">
                <path d="M15,0 C6.72903408,0 0,7.0546325 0,15.7258065 C0,24.396347 6.72903408,31.4516129 15,31.4516129 C23.2703617,31.4516129 30,24.396347 30,15.7258065 C30,7.0546325 23.2715701,0 15,0 Z M18.7303633,16.2794339 L16.2899782,16.2794339 C16.2899782,20.3670287 16.2899782,25.3984506 16.2899782,25.3984506 L12.6738097,25.3984506 C12.6738097,25.3984506 12.6738097,20.4158037 12.6738097,16.2794339 L10.9548457,16.2794339 L10.9548457,13.056486 L12.6738097,13.056486 L12.6738097,10.9718317 C12.6738097,9.47881124 13.3505196,7.14584801 16.3232095,7.14584801 L19.0028599,7.1566165 L19.0028599,10.2851816 C19.0028599,10.2851816 17.3745267,10.2851816 17.0579231,10.2851816 C16.7413196,10.2851816 16.2911867,10.4511432 16.2911867,11.1631309 L16.2911867,13.0571195 L19.0463627,13.0571195 L18.7303633,16.2794339 Z"></path>
            </g>
        </g>
    </g>
</svg>