<svg width="78px" height="28px" viewBox="0 0 78 28" version="1.1" xmlns="http://www.w3.org/2000/svg" xmlns:xlink="http://www.w3.org/1999/xlink">
    <g id="Symbols" stroke="none" stroke-width="1" fill="none" fill-rule="evenodd">
        <g id="galeao">
            <g>
                <path d="M34,4 L38,0 L42,4 L78,4 L78,28 L0,28 L0,4 L34,4 Z" id="Combined-Shape" fill="#675B59"></path>
                <path d="M19.107,17.396 L19.107,13.904 C19.107,12.9839954 19.3509976,12.3080022 19.839,11.876 C20.3270024,11.4439978 20.966996,11.228 21.759,11.228 C22.567004,11.228 23.2249975,11.429998 23.733,11.834 C24.2410025,12.238002 24.495,12.7759966 24.495,13.448 C24.495,13.6800012 24.4450005,13.8399996 24.345,13.928 C24.2449995,14.0160004 24.0830011,14.06 23.859,14.06 C23.4429979,14.06 23.231,13.9200014 23.223,13.64 C23.1349996,12.7839957 22.6590043,12.356 21.795,12.356 C20.8509953,12.356 20.379,12.8719948 20.379,13.904 L20.379,17.396 C20.379,18.4280052 20.8509953,18.944 21.795,18.944 C22.2510023,18.944 22.6029988,18.8160013 22.851,18.56 C23.0990012,18.3039987 23.223,17.9160026 23.223,17.396 L23.223,16.412 L22.011,16.412 C21.8829994,16.412 21.7830004,16.3620005 21.711,16.262 C21.6389996,16.1619995 21.603,16.0400007 21.603,15.896 C21.603,15.7679994 21.6389996,15.6520005 21.711,15.548 C21.7830004,15.4439995 21.8829994,15.392 22.011,15.392 L24.075,15.392 C24.2030006,15.392 24.3049996,15.4339996 24.381,15.518 C24.4570004,15.6020004 24.495,15.7039994 24.495,15.824 L24.495,17.396 C24.495,18.3160046 24.2490025,18.9919978 23.757,19.424 C23.2649975,19.8560022 22.6110041,20.072 21.795,20.072 C20.9789959,20.072 20.3270024,19.8560022 19.839,19.424 C19.3509976,18.9919978 19.107,18.3160046 19.107,17.396 Z M25.614,19.472 C25.614,19.4239998 25.618,19.3880001 25.626,19.364 L28.014,11.588 C28.1100005,11.2999986 28.3779978,11.156 28.818,11.156 C29.2660022,11.156 29.5379995,11.2999986 29.634,11.588 L32.01,19.364 C32.0260001,19.4120002 32.034,19.4479999 32.034,19.472 C32.034,19.6160007 31.9480009,19.7399995 31.776,19.844 C31.6039991,19.9480005 31.422001,20 31.23,20 C30.9979988,20 30.8540003,19.9120009 30.798,19.736 L30.306,18.032 L27.342,18.032 L26.85,19.736 C26.7939997,19.9120009 26.6460012,20 26.406,20 C26.213999,20 26.0340008,19.9480005 25.866,19.844 C25.6979992,19.7399995 25.614,19.6160007 25.614,19.472 Z M27.618,17.012 L30.018,17.012 L28.818,12.896 L27.618,17.012 Z M33.357,19.58 L33.357,11.636 C33.357,11.4999993 33.4189994,11.3980003 33.543,11.33 C33.6670006,11.2619997 33.8169991,11.228 33.993,11.228 C34.1690009,11.228 34.3189994,11.2619997 34.443,11.33 C34.5670006,11.3980003 34.629,11.4999993 34.629,11.636 L34.629,18.872 L37.749,18.872 C37.8690006,18.872 37.9629997,18.9279994 38.031,19.04 C38.0990003,19.1520006 38.133,19.2839992 38.133,19.436 C38.133,19.5880008 38.0990003,19.7199994 38.031,19.832 C37.9629997,19.9440006 37.8690006,20 37.749,20 L33.921,20 C33.7689992,20 33.6370006,19.9620004 33.525,19.886 C33.4129994,19.8099996 33.357,19.7080006 33.357,19.58 Z M39.456,19.58 L39.456,11.648 C39.456,11.5199994 39.5119994,11.4180004 39.624,11.342 C39.7360006,11.2659996 39.8679992,11.228 40.02,11.228 L44.292,11.228 C44.4280007,11.228 44.5319996,11.2839994 44.604,11.396 C44.6760004,11.5080006 44.712,11.6359993 44.712,11.78 C44.712,11.9400008 44.6740004,12.0759994 44.598,12.188 C44.5219996,12.3000006 44.4200006,12.356 44.292,12.356 L40.728,12.356 L40.728,15.104 L42.576,15.104 C42.7040006,15.104 42.8059996,15.1539995 42.882,15.254 C42.9580004,15.3540005 42.996,15.4759993 42.996,15.62 C42.996,15.7480006 42.9600004,15.8619995 42.888,15.962 C42.8159996,16.0620005 42.7120007,16.112 42.576,16.112 L40.728,16.112 L40.728,18.872 L44.292,18.872 C44.4200006,18.872 44.5219996,18.9279994 44.598,19.04 C44.6740004,19.1520006 44.712,19.2879992 44.712,19.448 C44.712,19.5920007 44.6760004,19.7199994 44.604,19.832 C44.5319996,19.9440006 44.4280007,20 44.292,20 L40.02,20 C39.8679992,20 39.7360006,19.9620004 39.624,19.886 C39.5119994,19.8099996 39.456,19.7080006 39.456,19.58 Z M45.483,19.472 C45.483,19.4239998 45.487,19.3880001 45.495,19.364 L47.883,11.588 C47.9790005,11.2999986 48.2469978,11.156 48.687,11.156 C49.1350022,11.156 49.4069995,11.2999986 49.503,11.588 L51.879,19.364 C51.8950001,19.4120002 51.903,19.4479999 51.903,19.472 C51.903,19.6160007 51.8170009,19.7399995 51.645,19.844 C51.4729991,19.9480005 51.291001,20 51.099,20 C50.8669988,20 50.7230003,19.9120009 50.667,19.736 L50.175,18.032 L47.211,18.032 L46.719,19.736 C46.6629997,19.9120009 46.5150012,20 46.275,20 C46.082999,20 45.9030008,19.9480005 45.735,19.844 C45.5669992,19.7399995 45.483,19.6160007 45.483,19.472 Z M46.707,9.404 C46.707,9.13199864 46.8229988,8.9360006 47.055,8.816 C47.2870012,8.6959994 47.5189988,8.636 47.751,8.636 C47.9750011,8.636 48.2529983,8.69799938 48.585,8.822 C48.9170017,8.94600062 49.1909989,9.008 49.407,9.008 C49.599001,9.008 49.7869991,8.9580005 49.971,8.858 C50.1550009,8.7579995 50.2749997,8.708 50.331,8.708 C50.4430006,8.708 50.5269997,8.75599952 50.583,8.852 C50.6390003,8.94800048 50.667,9.0359996 50.667,9.116 C50.667,9.40400144 50.5550011,9.60399944 50.331,9.716 C50.1069989,9.82800056 49.8790012,9.884 49.647,9.884 C49.3909987,9.884 49.0990016,9.82200062 48.771,9.698 C48.4429984,9.57399938 48.179001,9.512 47.979,9.512 C47.786999,9.512 47.5970009,9.56599946 47.409,9.674 C47.2209991,9.78200054 47.0990003,9.836 47.043,9.836 C46.9309994,9.836 46.8470003,9.7860005 46.791,9.686 C46.7349997,9.5859995 46.707,9.49200044 46.707,9.404 Z M47.487,17.012 L49.887,17.012 L48.687,12.896 L47.487,17.012 Z M53.142,17.396 L53.142,13.904 C53.142,12.9839954 53.3859976,12.3080022 53.874,11.876 C54.3620024,11.4439978 55.0139959,11.228 55.83,11.228 C56.6460041,11.228 57.2999975,11.4439978 57.792,11.876 C58.2840025,12.3080022 58.53,12.9839954 58.53,13.904 L58.53,17.396 C58.53,18.3160046 58.2840025,18.9919978 57.792,19.424 C57.2999975,19.8560022 56.6460041,20.072 55.83,20.072 C55.0139959,20.072 54.3620024,19.8560022 53.874,19.424 C53.3859976,18.9919978 53.142,18.3160046 53.142,17.396 Z M54.414,17.396 C54.414,18.4280052 54.8859953,18.944 55.83,18.944 C56.2860023,18.944 56.6379988,18.8160013 56.886,18.56 C57.1340012,18.3039987 57.258,17.9160026 57.258,17.396 L57.258,13.904 C57.258,13.3839974 57.1340012,12.9960013 56.886,12.74 C56.6379988,12.4839987 56.2860023,12.356 55.83,12.356 C54.8859953,12.356 54.414,12.8719948 54.414,13.904 L54.414,17.396 Z" id="galeão" fill="#FFFFFF"></path>
            </g>
        </g>
    </g>
</svg>