
<svg width="30px" height="32px" viewBox="0 0 30 32" version="1.1" xmlns="http://www.w3.org/2000/svg" xmlns:xlink="http://www.w3.org/1999/xlink">
    <g id="Symbols" stroke="none" stroke-width="1" fill="none" fill-rule="evenodd">
        <g id="icon/gmail" fill="#372E2D" fill-rule="nonzero">
            <g id="Shape">
                <path d="M15,0 C6.71569444,0 0,7.0406474 0,15.7258065 C0,24.4109655 6.71569444,31.4516129 15,31.4516129 C23.2843056,31.4516129 30,24.4109655 30,15.7258065 C30,7.0406474 23.2843056,0 15,0 Z M21.7579167,9.52284946 L14.9944444,15.128517 L8.01097222,9.52284946 L21.7579167,9.52284946 Z M22.45375,22.7150538 L7.31486111,22.7150538 L7.31486111,11.1040211 L14.2931944,16.6531922 C14.4802778,16.8031698 14.7570833,16.8781586 14.9802778,16.8781586 C15.20875,16.8781586 15.4070833,16.7995296 15.59625,16.6428539 L22.45375,10.9239023 L22.45375,22.7150538 Z"></path>
            </g>
        </g>
    </g>
</svg>