<svg xmlns="http://www.w3.org/2000/svg" width="21" height="21" viewBox="0 0 21 21">
    <g fill="#372E2D" fill-rule="nonzero">
        <path d="M10.158 4.883a2.42 2.42 0 0 0 2.418-2.418A2.42 2.42 0 0 0 10.158.048 2.42 2.42 0 0 0 7.74 2.465a2.42 2.42 0 0 0 2.418 2.418zM10.666 5.665a.286.286 0 0 0-.211-.088h-.593c-.08 0-.159.03-.212.088a.275.275 0 0 0-.037.324l.317.478-.148 1.252.292.778a.09.09 0 0 0 .168 0l.292-.778-.148-1.252.317-.478a.275.275 0 0 0-.037-.324z"/>
        <path d="M6.435 11.25h7.446c.19 0 .345-.154.345-.344V7.804c0-.904-.586-1.707-1.458-1.998l-.68-.208a.244.244 0 0 0-.302.15l-1.628 4.466L8.53 5.748a.245.245 0 0 0-.301-.15l-.675.207A2.114 2.114 0 0 0 6.09 7.804v3.102c0 .19.155.344.345.344zM2.418 6.12A2.42 2.42 0 0 0 4.836 3.7a2.42 2.42 0 0 0-2.418-2.418A2.42 2.42 0 0 0 0 3.701 2.42 2.42 0 0 0 2.418 6.12z"/>
        <path d="M6.533 12.766H4.608V8.962a2.19 2.19 0 0 0-4.38 0v5.167c0 1.161.941 2.102 2.102 2.102h2.5v3.443c0 .329.265.595.593.595H7.73a.594.594 0 0 0 .595-.595v-5.117c0-.99-.802-1.791-1.792-1.791zM17.898 6.12A2.42 2.42 0 0 0 20.316 3.7a2.42 2.42 0 0 0-2.418-2.418 2.42 2.42 0 0 0-2.417 2.418 2.42 2.42 0 0 0 2.417 2.418zM17.898 6.772c-1.21 0-2.19.98-2.19 2.19v3.804h-1.925c-.99 0-1.791.801-1.791 1.79v5.118c0 .329.266.595.594.595h2.307a.594.594 0 0 0 .594-.595v-3.443h2.499a2.102 2.102 0 0 0 2.102-2.102V8.962c0-1.21-.98-2.19-2.19-2.19z"/>
    </g>
</svg>
