<svg width="14px" height="15px" viewBox="0 0 14 15" version="1.1" xmlns="http://www.w3.org/2000/svg" xmlns:xlink="http://www.w3.org/1999/xlink">
    <g id="Symbols" stroke="none" stroke-width="1" fill="none" fill-rule="evenodd">
        <g id="icon/hospital" fill="#372E2D">
            <g id="Fill-1">
                <path d="M4.9869,13.5084 C4.9869,13.8074 5.2589,14.0444 5.5609,14.0444 L7.6749,14.0444 C7.9759,14.0444 8.2479,13.8074 8.2479,13.5084 L8.2479,9.1484 L12.6909,9.1484 C12.9929,9.1484 13.2349,8.8794 13.2349,8.5814 L13.2349,6.4934 C13.2349,6.1964 12.9929,5.9274 12.6909,5.9274 L8.2479,5.9274 L8.2479,1.5374 C8.2479,1.2384 7.9759,0.9994 7.6749,0.9994 L5.5609,0.9994 C5.2589,0.9994 4.9869,1.2384 4.9869,1.5374 L4.9869,5.9274 L0.5739,5.9274 C0.2719,5.9274 -9.99999993e-05,6.1964 -9.99999993e-05,6.4934 L-9.99999993e-05,8.5814 C-9.99999993e-05,8.8794 0.2719,9.1484 0.5739,9.1484 L4.9869,9.1484 L4.9869,13.5084 Z"></path>
            </g>
        </g>
    </g>
</svg>