<svg xmlns="http://www.w3.org/2000/svg" width="23" height="16" viewBox="0 0 23 16">
    <g fill="#372E2D" fill-rule="nonzero">
        <path d="M20.57 15.15l-.16-2.579H8.162l-.16 2.578a.902.902 0 0 0 .171.598.603.603 0 0 0 .477.253h11.271a.604.604 0 0 0 .477-.253.902.902 0 0 0 .172-.598zM19.34 0c-1.713 0-3.143 1.21-3.453 2.803H9.67a.654.654 0 0 0-.657.598L8.86 5.376 4.234.836a.668.668 0 0 0-.933 0L.193 3.886a.638.638 0 0 0-.165.645c.07.228.264.4.502.447l2.912.571 5.026 4.931-.073.949h12.22l-.357-4.647a3.52 3.52 0 0 0 1.657-.981c.608-.64.942-1.476.942-2.35C22.857 1.547 21.28 0 19.341 0zm.816 5.452l-.158-2.05a.654.654 0 0 0-.657-.599h-2.097a2.197 2.197 0 0 1 2.097-1.51c1.212 0 2.197.968 2.197 2.157 0 .897-.57 1.681-1.382 2.002z"/>
    </g>
</svg>
