<svg xmlns="http://www.w3.org/2000/svg" width="25" height="19" viewBox="0 0 25 19">
    <g fill="#372E2D" fill-rule="evenodd">
        <path fill-rule="nonzero" d="M24.074 11.262c-.459-.155-3.651-.86-3.651-.86S14.506 7 13.795 7l-5.581.002c-1.19 0-2.185.917-3.337 1.979-.543.5-1.142 1.05-1.803 1.54l-2.46.331a.89.89 0 0 0-.614.849v2.85c0 .492.394.891.881.891h1.691C2.695 16.873 3.886 18 5.332 18c1.447 0 2.638-1.127 2.76-2.558h8.076c.123 1.431 1.314 2.558 2.76 2.558 1.447 0 2.638-1.127 2.76-2.558h1.39c1.1 0 1.639-.48 1.774-.932.342-1.141.096-2.952-.778-3.248zM5.333 16.65a1.445 1.445 0 0 1-1.436-1.452c0-.8.644-1.451 1.436-1.451.791 0 1.435.65 1.435 1.451 0 .8-.644 1.452-1.435 1.452zm5.33-6.248H5.846c.348-.278.67-.573.967-.847.78-.718 1.453-1.34 2.259-1.34h1.59v2.187zm1.172-2.187h1.393c.664 0 3.355 1.58 4.366 2.187h-5.76V8.215zm7.093 8.435a1.445 1.445 0 0 1-1.435-1.452c0-.8.644-1.451 1.435-1.451.792 0 1.436.65 1.436 1.451 0 .8-.644 1.452-1.436 1.452zM3.41 3.115a9.943 9.943 0 0 0-.815-1.073A.126.126 0 0 0 2.5 2a.126.126 0 0 0-.095.042c-.174.2-.512.606-.816 1.074C1.2 3.719 1 4.218 1 4.598 1 5.371 1.673 6 2.5 6S4 5.371 4 4.598c0-.38-.198-.88-.59-1.483zm-.704 2.369c-.088.02-.179.031-.27.031-.56 0-1.017-.396-1.017-.882 0-.117.033-.255.099-.408.01-.026.042-.04.073-.034.031.006.052.031.049.059a.83.83 0 0 0-.006.095c0 .53.457.973 1.062 1.031.03.003.054.024.056.05.002.027-.017.05-.046.058zM12.41 1.115a9.943 9.943 0 0 0-.815-1.073A.126.126 0 0 0 11.5 0a.126.126 0 0 0-.095.042c-.174.2-.512.606-.816 1.074C10.2 1.719 10 2.218 10 2.598 10 3.371 10.673 4 11.5 4S13 3.371 13 2.598c0-.38-.198-.88-.59-1.483zm-.704 2.369c-.088.02-.179.031-.27.031-.56 0-1.017-.396-1.017-.882 0-.117.033-.255.099-.408.01-.026.042-.04.073-.034.031.006.052.031.049.059a.83.83 0 0 0-.006.095c0 .53.457.973 1.062 1.031.03.003.054.024.056.05.002.027-.017.05-.046.058zM21.41 3.115a9.943 9.943 0 0 0-.815-1.073A.126.126 0 0 0 20.5 2a.126.126 0 0 0-.095.042c-.174.2-.512.606-.816 1.074C19.2 3.719 19 4.218 19 4.598 19 5.371 19.673 6 20.5 6S22 5.371 22 4.598c0-.38-.198-.88-.59-1.483zm-.704 2.369c-.088.02-.179.031-.27.031-.56 0-1.017-.396-1.017-.882 0-.117.033-.255.099-.408.01-.026.042-.04.073-.034.031.006.052.031.049.059a.83.83 0 0 0-.006.095c0 .53.457.973 1.062 1.031.03.003.054.024.056.05.002.027-.017.05-.046.058z"/>
    </g>
</svg>
