<svg xmlns="http://www.w3.org/2000/svg" width="16" height="19" viewBox="0 0 16 19">
    <g fill="#372E2D" fill-rule="nonzero">
        <path d="M.005 0v4.29h15.848V0H.005zm3.693 2.68H2.166V1.61h1.532V2.68zm2.605 0H4.771V1.61h1.532V2.68zm7.389 0H9.554V1.61h4.138V2.68zM7.929 8.041a3.789 3.789 0 0 0-3.69 2.954c.19-.109.441-.207.811-.207.528 0 .816.2 1.026.345.152.106.222.155.414.155.192 0 .261-.049.414-.155.21-.145.497-.345 1.025-.345.528 0 .815.2 1.025.345.153.106.222.155.414.155.192 0 .262-.049.414-.155.21-.145.498-.345 1.025-.345.37 0 .622.098.812.207a3.788 3.788 0 0 0-3.69-2.954zM11.221 12.013c-.152-.106-.222-.154-.414-.154-.192 0-.261.048-.414.154-.21.146-.497.346-1.025.346-.528 0-.815-.2-1.025-.346-.153-.106-.222-.154-.414-.154-.192 0-.262.048-.414.154-.21.146-.498.346-1.025.346-.528 0-.816-.2-1.026-.346-.152-.106-.222-.154-.414-.154-.192 0-.261.048-.414.154-.12.083-.264.184-.463.255a3.787 3.787 0 0 0 3.756 3.337 3.787 3.787 0 0 0 3.755-3.337 1.902 1.902 0 0 1-.463-.255z"/>
        <path d="M.005 5.36v12.926h15.848V5.36H.005zm7.924 11.317a4.859 4.859 0 0 1-4.854-4.854A4.86 4.86 0 0 1 7.93 6.97a4.86 4.86 0 0 1 4.853 4.853 4.86 4.86 0 0 1-4.853 4.854z"/>
    </g>
</svg>
