<svg width="22px" height="20px" viewBox="0 0 22 20" version="1.1" xmlns="http://www.w3.org/2000/svg" xmlns:xlink="http://www.w3.org/1999/xlink">
    <g id="Symbols" stroke="none" stroke-width="1" fill="none" fill-rule="evenodd">
        <g id="icon/lazer" fill="#372E2D" fill-rule="nonzero">
            <g id="Group">
                <g>
                    <path d="M5.64527481,4.5 L5.64532443,4.50028571 C5.64631679,4.50009524 5.64725954,4.49980952 5.64830153,4.49961905 C5.64924427,4.49952381 5.65028626,4.49947619 5.65122901,4.49933333 L5.65117939,4.49909524 C6.68448092,4.31814286 7.38012977,3.37571429 7.20939313,2.37704762 C7.03860687,1.37847619 6.06574046,0.698809524 5.0263855,0.844285714 L5.0263855,0.844047619 C5.02539313,0.844190476 5.02445038,0.844428571 5.02345802,0.844619048 C5.02251527,0.844761905 5.0215229,0.844809524 5.02048092,0.845 L5.02053053,0.845190476 C3.98737786,1.02614286 3.29167939,1.96847619 3.46236641,2.96704762 C3.63310305,3.96566667 4.60611832,4.64538095 5.64527481,4.5 Z" id="Shape"></path>
                    <path d="M12.734542,15.4337143 L9.00468321,11.8060952 C8.74860305,11.5118571 8.05786641,7.34042857 8.02824427,7.1672381 C7.95232824,6.72328571 8.08361832,6.44152381 8.08361832,6.44152381 C8.08361832,6.44152381 9.95814885,1.81947619 10.1480382,1.31061905 C10.3380267,0.801714286 10.3271603,0.468904762 9.96092748,0.216285714 C9.59429771,-0.0364285714 8.96885878,-0.043952381 8.8205,0.395857143 L6.81219847,5.02057143 C6.81219847,5.02057143 6.30028626,4.84152381 5.7348855,4.92114286 C5.73012214,4.922 5.72555725,4.92285714 5.72079389,4.9237619 C5.71608015,4.92442857 5.71146565,4.92485714 5.70660305,4.92561905 C5.1444771,5.02357143 4.71890076,5.3502381 4.71890076,5.3502381 L1.27613359,1.58385714 C0.86980916,1.20290476 0.398980916,1.41152381 0.135656489,1.76342857 C-0.127221374,2.11509524 0.0228244275,2.51171429 0.322717557,2.8577619 C0.622610687,3.20385714 3.98732824,7.08666667 3.98732824,7.08666667 C3.98732824,7.08666667 4.20540076,7.31342857 4.28126718,7.75733333 C4.28727099,7.79257143 4.28900763,7.80271429 5.01035878,12.0210476 L5.49428626,19.158 C5.52584351,19.6232857 5.92894275,19.9804762 6.40800763,19.9804762 C6.42800382,19.9804762 6.44819847,19.9798571 6.46844275,19.978619 C6.97355725,19.9470476 7.35641221,19.5284762 7.32351527,19.0437143 C7.32351527,19.0437143 6.88727099,12.8378571 6.88727099,12.6096667 C6.88727099,12.4695714 7.02942748,12.3896667 7.19703817,12.5527619 C7.36464885,12.7157619 11.4297786,16.669381 11.4297786,16.669381 C11.7852939,17.0151429 12.3656298,17.0189048 12.725958,16.6776667 C13.086187,16.336381 13.0900573,15.7794762 12.734542,15.4337143 Z" id="Shape"></path>
                </g>
                <g transform="translate(9.000000, 3.000000)">
                    <path d="M7.08476449,3.25074766 L7.08467029,3.25093458 C7.08542391,3.25121495 7.08603623,3.25130841 7.08678986,3.25154206 C7.08759058,3.2517757 7.0881087,3.2521028 7.08886232,3.25233645 L7.08895652,3.25219626 C7.09522101,3.25420561 7.10148551,3.25579439 7.1076087,3.25766355 C7.11373188,3.25995327 7.11966667,3.26252336 7.12583696,3.26471963 L7.12574275,3.26490654 C7.12654348,3.26509346 7.1271087,3.26528037 7.12790942,3.26551402 C7.12856884,3.26570093 7.12918116,3.26607477 7.12993478,3.26630841 L7.12998188,3.26616822 C7.86825,3.50266355 8.66417029,3.10990654 8.91682246,2.37883178 C9.16938043,1.64785047 8.78371377,0.853317757 8.05444203,0.590841121 L8.05448913,0.590700935 C8.05368841,0.590420561 8.05307609,0.590233645 8.05227536,0.590046729 C8.05161594,0.589813084 8.05100362,0.58953271 8.05025,0.589252336 L8.0502029,0.589392523 C8.04393841,0.587429907 8.03772101,0.585794393 8.03155072,0.583925234 C8.02542754,0.581635514 8.01953986,0.57911215 8.01327536,0.576869159 L8.01346377,0.576728972 C8.01271014,0.576448598 8.01200362,0.57635514 8.0112971,0.576074766 C8.01054348,0.57588785 8.00997826,0.575560748 8.00917754,0.575327103 L8.00913043,0.57546729 C7.27090942,0.338925234 6.47508333,0.731682243 6.22247826,1.46261682 C5.96987319,2.1935514 6.35544565,2.98827103 7.08476449,3.25074766 Z" id="Shape"></path>
                    <path d="M12.9536522,3.83626168 C12.8787138,3.51392523 12.5634167,3.37327103 11.9939601,3.49079439 L7.72044565,3.94714953 C7.72044565,3.94714953 7.52097101,3.71102804 7.00977899,3.53724299 C6.49858696,3.36341121 6.19727899,3.42915888 6.19727899,3.42915888 L3.10469203,0.467803738 C2.72769203,0.028364486 2.39167029,-0.0524766355 2.13322464,0.156448598 C1.82216667,0.407850467 1.7647971,0.80546729 1.94693841,1.02985981 C2.22153986,1.3682243 4.98856159,4.18228972 5.08879348,4.34350467 C5.18902536,4.50476636 5.14823551,4.57168224 5.03580435,4.89663551 C4.98809058,5.03471963 4.25255435,7.06808411 3.97357246,7.82191589 L0.319960145,10.264486 C0.00117753623,10.4776168 -0.0830869565,10.9067757 0.131695652,11.2230374 C0.346478261,11.5393458 0.779057971,11.6229907 1.09788768,11.4098131 C1.09788768,11.4098131 4.95088043,8.84107477 5.0441413,8.77168224 C5.13740217,8.70228972 5.26240942,8.74579439 5.22025362,8.87766355 C5.17814493,9.00943925 3.56680435,14.0585047 3.56680435,14.0585047 C3.45074638,14.4221028 3.65380072,14.8101402 4.0202971,14.9252804 C4.09014855,14.9472897 4.16094203,14.9576636 4.23055797,14.9576636 C4.52593116,14.9576636 4.80006159,14.7697196 4.89398188,14.4754206 L6.71261594,8.77700935 C6.72029348,8.75294393 6.72608696,8.72869159 6.73103261,8.70439252 C7.76476812,5.71308411 7.75723188,5.73481308 7.73019565,5.81303738 C7.84248551,5.48808411 7.85162319,5.4103271 8.03042029,5.34401869 C8.20921739,5.27771028 12.134558,4.73957944 12.560779,4.63948598 C12.8432464,4.57299065 13.0438043,4.22411215 12.9536522,3.83626168 Z" id="Shape"></path>
                </g>
            </g>
        </g>
    </g>
</svg>