<svg width="223px" height="151px" viewBox="0 0 223 151" version="1.1" xmlns="http://www.w3.org/2000/svg" xmlns:xlink="http://www.w3.org/1999/xlink">
    <g id="Page-1" stroke="none" stroke-width="1" fill="none" fill-rule="evenodd">
        <g id="LEGENDA-03">
            <g id="Mapa" transform="translate(111.500000, 75.500000) scale(-1, 1) translate(-111.500000, -75.500000) ">
                <rect id="Rectangle-3" fill="#F3E0DB" x="0" y="0" width="223" height="150.902256"></rect>
                <g id="icon/planta" transform="translate(102.660043, 71.342105) scale(-1, 1) translate(-102.660043, -71.342105) translate(43.160043, 29.342105)" stroke="#F3E0DB" stroke-width="1.5">
                    <polygon id="Fill-1" fill="#FFFFFF" points="8.16867043 4.08433522 8.16867043 5.50938827 9.37624475 5.50938827 9.37624475 40.8433522 32.6746817 40.8433522 32.6746817 4.08433522"></polygon>
                    <polygon id="Fill-3" fill="#FFFFFF" points="8.16867043 77.6023691 8.16867043 76.1781709 9.37624475 76.1781709 9.37624475 40.8433522 32.6746817 40.8433522 32.6746817 77.6023691"></polygon>
                    <polygon id="Fill-5" fill="#FFFFFF" points="0 20.4216761 0 21.788471 0.930637475 21.788471 0.930637475 40.8433522 8.16867043 40.8433522 8.16867043 20.4216761"></polygon>
                    <polygon id="Fill-8" fill="#FFFFFF" points="0.930637475 40.8433522 0.930637475 59.8981756 0 59.8981756 0 61.2650282 8.16867043 61.2650282 8.16867043 40.8433522"></polygon>
                    <polygon id="Fill-11" fill="#EF4F23" points="32.6746817 34.7168493 69.4336987 34.7168493 69.4336987 10.210838 32.6746817 10.210838"></polygon>
                    <polygon id="Fill-13" fill="#EAA997" points="32.6746817 73.5180339 69.4336987 73.5180339 69.4336987 49.0120226 32.6746817 49.0120226"></polygon>
                    <polygon id="Fill-15" fill="#EF4F23" points="51.5810775 0 51.5810775 1.41372135 36.2043495 1.41372135 36.2043495 0 34.7168493 0 34.7168493 10.210838 53.0963578 10.210838 53.0963578 0"></polygon>
                    <polygon id="Fill-18" fill="#EAA997" points="34.7168493 73.5180339 34.7168493 83.7288719 36.2051232 83.7288719 36.2051232 82.3158322 51.5811469 82.3158322 51.5811469 83.7288719 53.0963578 83.7288719 53.0963578 73.5180339"></polygon>
                    <polygon id="Fill-21" fill="#FFFFFF" points="67.3915311 73.5180339 67.3915311 83.7288719 69.0156465 83.7288719 69.0156465 82.3158322 80.2078633 82.3158322 80.2078633 83.7288719 81.6867043 83.7288719 81.6867043 73.5180339"></polygon>
                    <polygon id="Fill-24" fill="#FFFFFF" points="80.2078633 0 80.2078633 1.41372135 69.0156465 1.41372135 69.0156465 0 67.3915311 0 67.3915311 10.210838 81.6867043 10.210838 81.6867043 0"></polygon>
                    <polygon id="Fill-27" fill="#FFFFFF" points="67.5339907 49.0120226 90.9929195 49.0120226 90.9929195 61.94843 112.319218 61.94843 112.319218 77.6023691 110.840879 77.6023691 110.840879 76.2732862 83.5995182 76.2732862 83.5995182 73.8215711 67.3915311 73.8215711"></polygon>
                    <polygon id="Fill-29" fill="#FFFFFF" points="67.5339907 34.7168493 87.0688805 34.7168493 87.0688805 29.6955739 94.8316533 29.6955739 94.8316533 21.7804419 112.319218 21.7804419 112.319218 6.12650282 110.840879 6.12650282 110.840879 7.45558578 83.5995182 7.45558578 83.5995182 9.90730081 67.3915311 9.90730081"></polygon>
                    <polygon id="Fill-31" fill="#FFFFFF" points="87.8132072 28.0399026 87.8132072 39.9260888 91.6596666 39.9260888 91.6596666 61.2650282 118.445721 61.2650282 118.445721 20.4216761 95.5349766 20.4216761 95.5349766 28.0399026"></polygon>
                </g>
                <path d="M178.567669,29.0367818 L178.567669,114.347008" id="Line" stroke="#372E2D" stroke-width="0.4" stroke-linecap="square"></path>
                <path d="M164.471722,76.8662556 L164.471722,70.0152932 C164.471722,69.8677436 164.555556,69.7872632 164.723226,69.7738496 L166.503872,69.7738496 C167.154432,69.7738496 167.679231,69.9281037 168.078286,70.2366165 C168.47734,70.5451294 168.676865,71.0514852 168.676865,71.7556992 C168.676865,72.8690281 168.153742,73.5162247 167.107481,73.6973083 L168.656744,76.6751128 C168.683572,76.7086468 168.696985,76.7522403 168.696985,76.8058947 C168.696985,76.8930831 168.656745,76.9718869 168.576263,77.0423083 C168.495782,77.1127297 168.408594,77.1479398 168.314699,77.1479398 C168.193977,77.1479398 168.07661,77.0305726 167.962594,76.7958346 L166.413331,73.7777895 L165.135692,73.7777895 L165.135692,76.8662556 C165.135692,76.9467372 165.102158,77.0104509 165.03509,77.0573985 C164.968022,77.1043461 164.890895,77.1278195 164.803707,77.1278195 C164.709812,77.1278195 164.631008,77.1043461 164.567293,77.0573985 C164.503579,77.0104509 164.471722,76.9467372 164.471722,76.8662556 Z M165.135692,73.2043609 L166.503872,73.2043609 C167.509892,73.2043609 168.012895,72.7315386 168.012895,71.7858797 C168.012895,70.8536344 167.509892,70.3875188 166.503872,70.3875188 L165.135692,70.3875188 L165.135692,73.2043609 Z M169.538684,76.7254135 C169.538684,76.5912775 169.582278,76.4789403 169.669466,76.3883985 C169.756655,76.2978567 169.867315,76.2525865 170.001451,76.2525865 C170.122174,76.2525865 170.227804,76.2995334 170.318346,76.3934286 C170.408888,76.4873238 170.454158,76.5979843 170.454158,76.7254135 C170.454158,76.8461359 170.408888,76.9534431 170.318346,77.0473383 C170.227804,77.1412336 170.122174,77.1881805 170.001451,77.1881805 C169.867315,77.1881805 169.756655,77.1429102 169.669466,77.0523684 C169.582278,76.9618266 169.538684,76.8528427 169.538684,76.7254135 Z M173.847782,76.8763158 L173.847782,70.0253534 C173.847782,69.9448718 173.877962,69.8828348 173.938323,69.8392406 C173.998684,69.7956464 174.069105,69.7738496 174.149586,69.7738496 L175.799451,69.7738496 C176.107964,69.7738496 176.376232,69.7973231 176.604263,69.8442707 C176.832294,69.8912183 177.045232,69.975052 177.243083,70.0957744 C177.440933,70.2164968 177.591834,70.3925477 177.695789,70.6239323 C177.799745,70.8553169 177.851722,71.1420284 177.851722,71.4840752 C177.851722,71.8998968 177.774595,72.2519986 177.620338,72.540391 C177.466082,72.8287834 177.258174,73.0299844 176.996609,73.144 C177.331949,73.278136 177.58848,73.479337 177.766211,73.747609 C177.943941,74.015881 178.032804,74.3914562 178.032804,74.8743459 L178.032804,75.0554286 C178.032804,75.779763 177.851724,76.306239 177.489556,76.6348722 C177.127389,76.9635054 176.644507,77.1278195 176.040895,77.1278195 L174.149586,77.1278195 C174.055691,77.1278195 173.981918,77.1026694 173.928263,77.0523684 C173.874609,77.0020674 173.847782,76.9433838 173.847782,76.8763158 Z M174.501692,76.5141504 L175.960414,76.5141504 C176.899366,76.5141504 177.368835,76.0178546 177.368835,75.0252481 L177.368835,74.8542256 C177.368835,73.9018599 176.899366,73.4256842 175.960414,73.4256842 L174.501692,73.4256842 L174.501692,76.5141504 Z M174.501692,72.8522556 L175.819571,72.8522556 C176.295754,72.8522556 176.642826,72.7533318 176.860797,72.5554812 C177.078768,72.3576306 177.187752,72.0239723 177.187752,71.5544962 C177.187752,71.1185542 177.067031,70.815076 176.825586,70.6440526 C176.584142,70.4730292 176.235393,70.3875188 175.779331,70.3875188 L174.501692,70.3875188 L174.501692,72.8522556 Z M178.814143,76.8461353 C178.814143,76.8126013 178.817496,76.7891279 178.824203,76.7757143 L180.926774,69.9448722 C180.973722,69.7906158 181.104503,69.7134887 181.31912,69.7134887 C181.533738,69.7134887 181.667872,69.7906158 181.721526,69.9448722 L183.814038,76.7757143 C183.814038,76.7824211 183.815714,76.7924811 183.819068,76.8058947 C183.822421,76.8193083 183.824098,76.8293684 183.824098,76.8360752 C183.824098,76.9165568 183.780504,76.9853005 183.693316,77.0423083 C183.606127,77.0993161 183.515587,77.1278195 183.421692,77.1278195 C183.294263,77.1278195 183.210429,77.0708126 183.170188,76.956797 L182.707421,75.4075338 L179.920759,75.4075338 L179.457992,76.956797 C179.431165,77.0708126 179.343978,77.1278195 179.196429,77.1278195 C179.102533,77.1278195 179.015346,77.1009927 178.934865,77.0473383 C178.854383,76.9936839 178.814143,76.9266169 178.814143,76.8461353 Z M180.091782,74.8341053 L182.536398,74.8341053 L181.31912,70.7798647 L180.091782,74.8341053 Z M184.907241,76.8662556 L184.907241,70.0152932 C184.907241,69.8677436 184.991074,69.7872632 185.158744,69.7738496 L186.939391,69.7738496 C187.589951,69.7738496 188.11475,69.9281037 188.513804,70.2366165 C188.912859,70.5451294 189.112383,71.0514852 189.112383,71.7556992 C189.112383,72.8690281 188.589261,73.5162247 187.543,73.6973083 L189.092263,76.6751128 C189.11909,76.7086468 189.132504,76.7522403 189.132504,76.8058947 C189.132504,76.8930831 189.092264,76.9718869 189.011782,77.0423083 C188.9313,77.1127297 188.844113,77.1479398 188.750218,77.1479398 C188.629496,77.1479398 188.512128,77.0305726 188.398113,76.7958346 L186.84885,73.7777895 L185.571211,73.7777895 L185.571211,76.8662556 C185.571211,76.9467372 185.537677,77.0104509 185.470609,77.0573985 C185.403541,77.1043461 185.326414,77.1278195 185.239226,77.1278195 C185.14533,77.1278195 185.066527,77.1043461 185.002812,77.0573985 C184.939097,77.0104509 184.907241,76.9467372 184.907241,76.8662556 Z M185.571211,73.2043609 L186.939391,73.2043609 C187.945411,73.2043609 188.448414,72.7315386 188.448414,71.7858797 C188.448414,70.8536344 187.945411,70.3875188 186.939391,70.3875188 L185.571211,70.3875188 L185.571211,73.2043609 Z M189.78306,76.8461353 C189.78306,76.8126013 189.786413,76.7891279 189.79312,76.7757143 L191.895692,69.9448722 C191.942639,69.7906158 192.07342,69.7134887 192.288038,69.7134887 C192.502655,69.7134887 192.636789,69.7906158 192.690444,69.9448722 L194.782955,76.7757143 C194.782955,76.7824211 194.784632,76.7924811 194.787985,76.8058947 C194.791338,76.8193083 194.793015,76.8293684 194.793015,76.8360752 C194.793015,76.9165568 194.749421,76.9853005 194.662233,77.0423083 C194.575045,77.0993161 194.484504,77.1278195 194.390609,77.1278195 C194.26318,77.1278195 194.179346,77.0708126 194.139105,76.956797 L193.676338,75.4075338 L190.889677,75.4075338 L190.42691,76.956797 C190.400083,77.0708126 190.312895,77.1278195 190.165346,77.1278195 C190.071451,77.1278195 189.984264,77.1009927 189.903782,77.0473383 C189.8233,76.9936839 189.78306,76.9266169 189.78306,76.8461353 Z M190.728714,68.1642256 C190.728714,67.9965556 190.827638,67.8590682 191.025489,67.7517594 C191.223339,67.6444506 191.41951,67.590797 191.614008,67.590797 C191.788384,67.590797 192.009705,67.6478039 192.277977,67.7618195 C192.546249,67.8758352 192.767571,67.9328421 192.941947,67.9328421 C193.116324,67.9328421 193.267225,67.8842185 193.394654,67.7869699 C193.522083,67.6897213 193.605917,67.6410977 193.646158,67.6410977 C193.706519,67.6410977 193.755143,67.6662479 193.79203,67.7165489 C193.828917,67.7668499 193.847361,67.8188268 193.847361,67.8724812 C193.847361,68.0602716 193.753467,68.202789 193.565677,68.3000376 C193.377886,68.3972862 193.190099,68.4459098 193.002308,68.4459098 C192.821225,68.4459098 192.598227,68.3872262 192.333308,68.2698571 C192.06839,68.1524881 191.845392,68.0938045 191.664308,68.0938045 C191.496638,68.0938045 191.339031,68.1474581 191.191481,68.2547669 C191.043932,68.3620757 190.953391,68.4157293 190.919857,68.4157293 C190.792428,68.4157293 190.728714,68.3318956 190.728714,68.1642256 Z M191.060699,74.8341053 L193.505316,74.8341053 L192.288038,70.7798647 L191.060699,74.8341053 Z M195.795677,75.0353083 L195.795677,71.9166617 C195.795677,71.1789136 195.985141,70.6373476 196.364075,70.2919474 C196.743009,69.9465471 197.251042,69.7738496 197.888188,69.7738496 C198.525334,69.7738496 199.033367,69.9465471 199.412301,70.2919474 C199.791235,70.6373476 199.980699,71.1789136 199.980699,71.9166617 L199.980699,75.0353083 C199.980699,75.7797631 199.791235,76.3246825 199.412301,76.6700827 C199.033367,77.0154829 198.525334,77.1881805 197.888188,77.1881805 C197.251042,77.1881805 196.743009,77.0154829 196.364075,76.6700827 C195.985141,76.3246825 195.795677,75.7797631 195.795677,75.0353083 Z M196.459647,75.0353083 C196.459647,76.0614487 196.935822,76.5745113 197.888188,76.5745113 C198.840554,76.5745113 199.316729,76.0614487 199.316729,75.0353083 L199.316729,71.9166617 C199.316729,70.897228 198.840554,70.3875188 197.888188,70.3875188 C196.935822,70.3875188 196.459647,70.897228 196.459647,71.9166617 L196.459647,75.0353083 Z M203.656008,76.8763158 L203.656008,70.0152932 C203.656008,69.9482252 203.684511,69.8912183 203.741519,69.8442707 C203.798527,69.7973231 203.870624,69.7738496 203.957812,69.7738496 L205.738459,69.7738496 C206.375605,69.7738496 206.885314,69.9465471 207.267602,70.2919474 C207.649889,70.6373476 207.84103,71.1789136 207.84103,71.9166617 L207.84103,74.9749474 C207.84103,75.7194022 207.649889,76.2643216 207.267602,76.6097218 C206.885314,76.955122 206.375605,77.1278195 205.738459,77.1278195 L203.957812,77.1278195 C203.870624,77.1278195 203.798527,77.1026694 203.741519,77.0523684 C203.684511,77.0020674 203.656008,76.9433838 203.656008,76.8763158 Z M204.319977,76.5141504 L205.738459,76.5141504 C206.194521,76.5141504 206.5483,76.3850464 206.799805,76.1268346 C207.05131,75.8686228 207.17706,75.4846642 207.17706,74.9749474 L207.17706,71.9166617 C207.17706,71.4069448 207.05131,71.0246629 206.799805,70.7698045 C206.5483,70.5149461 206.194521,70.3875188 205.738459,70.3875188 L204.319977,70.3875188 L204.319977,76.5141504 Z M209.397,76.8662556 L209.397,70.0253534 C209.397,69.9448718 209.42718,69.8828348 209.487541,69.8392406 C209.547903,69.7956464 209.618323,69.7738496 209.698805,69.7738496 L213.280218,69.7738496 C213.447888,69.7738496 213.531722,69.8710968 213.531722,70.065594 C213.531722,70.1527824 213.509925,70.2282328 213.466331,70.2919474 C213.422737,70.355662 213.3607,70.3875188 213.280218,70.3875188 L210.06097,70.3875188 L210.06097,73.1540602 L211.640414,73.1540602 C211.720895,73.1540602 211.782932,73.1825636 211.826526,73.2395714 C211.870121,73.2965792 211.891917,73.3686763 211.891917,73.4558647 C211.891917,73.6369483 211.808084,73.7274887 211.640414,73.7274887 L210.06097,73.7274887 L210.06097,76.5141504 L213.280218,76.5141504 C213.353993,76.5141504 213.414353,76.5443305 213.461301,76.6046917 C213.508248,76.6650529 213.531722,76.7388266 213.531722,76.826015 C213.531722,77.0272191 213.447888,77.1278195 213.280218,77.1278195 L209.698805,77.1278195 C209.618323,77.1278195 209.547903,77.1043461 209.487541,77.0573985 C209.42718,77.0104509 209.397,76.9467372 209.397,76.8662556 Z M216.704023,75.0353083 L216.704023,70.0152932 C216.704023,69.85433 216.814683,69.7738496 217.036008,69.7738496 C217.257332,69.7738496 217.367993,69.85433 217.367993,70.0152932 L217.367993,75.0353083 C217.367993,75.5450251 217.493743,75.9289837 217.745248,76.1871955 C217.996753,76.4454073 218.353885,76.5745113 218.816654,76.5745113 C219.279423,76.5745113 219.636555,76.4454073 219.88806,76.1871955 C220.139565,75.9289837 220.265316,75.5450251 220.265316,75.0353083 L220.265316,70.0152932 C220.265316,69.85433 220.375976,69.7738496 220.597301,69.7738496 C220.818625,69.7738496 220.929286,69.85433 220.929286,70.0152932 L220.929286,75.0353083 C220.929286,75.7797631 220.736468,76.3246825 220.350827,76.6700827 C219.965186,77.0154829 219.4538,77.1881805 218.816654,77.1881805 C218.179508,77.1881805 217.668122,77.0154829 217.282481,76.6700827 C216.89684,76.3246825 216.704023,75.7797631 216.704023,75.0353083 Z M222.535556,76.8763158 L222.535556,70.0253534 C222.535556,69.9448718 222.565737,69.8828348 222.626098,69.8392406 C222.686459,69.7956464 222.756879,69.7738496 222.837361,69.7738496 L224.487226,69.7738496 C224.795738,69.7738496 225.064006,69.7973231 225.292038,69.8442707 C225.520069,69.8912183 225.733007,69.975052 225.930857,70.0957744 C226.128708,70.2164968 226.279609,70.3925477 226.383564,70.6239323 C226.487519,70.8553169 226.539496,71.1420284 226.539496,71.4840752 C226.539496,71.8998968 226.462369,72.2519986 226.308113,72.540391 C226.153856,72.8287834 225.945949,73.0299844 225.684383,73.144 C226.019724,73.278136 226.276255,73.479337 226.453985,73.747609 C226.631715,74.015881 226.720579,74.3914562 226.720579,74.8743459 L226.720579,75.0554286 C226.720579,75.779763 226.539498,76.306239 226.177331,76.6348722 C225.815164,76.9635054 225.332281,77.1278195 224.728669,77.1278195 L222.837361,77.1278195 C222.743466,77.1278195 222.669692,77.1026694 222.616038,77.0523684 C222.562383,77.0020674 222.535556,76.9433838 222.535556,76.8763158 Z M223.189466,76.5141504 L224.648188,76.5141504 C225.58714,76.5141504 226.056609,76.0178546 226.056609,75.0252481 L226.056609,74.8542256 C226.056609,73.9018599 225.58714,73.4256842 224.648188,73.4256842 L223.189466,73.4256842 L223.189466,76.5141504 Z M223.189466,72.8522556 L224.507346,72.8522556 C224.983529,72.8522556 225.3306,72.7533318 225.548571,72.5554812 C225.766542,72.3576306 225.875526,72.0239723 225.875526,71.5544962 C225.875526,71.1185542 225.754806,70.815076 225.513361,70.6440526 C225.271916,70.4730292 224.923168,70.3875188 224.467105,70.3875188 L223.189466,70.3875188 L223.189466,72.8522556 Z M227.501917,76.8461353 C227.501917,76.8126013 227.505271,76.7891279 227.511977,76.7757143 L229.614549,69.9448722 C229.661497,69.7906158 229.792277,69.7134887 230.006895,69.7134887 C230.221512,69.7134887 230.355646,69.7906158 230.409301,69.9448722 L232.501812,76.7757143 C232.501812,76.7824211 232.503489,76.7924811 232.506842,76.8058947 C232.510196,76.8193083 232.511872,76.8293684 232.511872,76.8360752 C232.511872,76.9165568 232.468279,76.9853005 232.38109,77.0423083 C232.293902,77.0993161 232.203361,77.1278195 232.109466,77.1278195 C231.982037,77.1278195 231.898203,77.0708126 231.857962,76.956797 L231.395196,75.4075338 L228.608534,75.4075338 L228.145767,76.956797 C228.11894,77.0708126 228.031753,77.1278195 227.884203,77.1278195 C227.790308,77.1278195 227.703121,77.1009927 227.622639,77.0473383 C227.542158,76.9936839 227.501917,76.9266169 227.501917,76.8461353 Z M228.779556,74.8341053 L231.224173,74.8341053 L230.006895,70.7798647 L228.779556,74.8341053 Z M229.322805,68.3453083 C229.322805,68.2581199 229.359691,68.1977596 229.433466,68.1642256 L230.560203,67.5505564 C230.580323,67.530436 230.60715,67.5203759 230.640684,67.5203759 C230.714459,67.5203759 230.773143,67.5488794 230.816737,67.6058872 C230.860331,67.662895 230.882128,67.7282853 230.882128,67.8020602 C230.882128,67.909369 230.841888,67.9831427 230.761406,68.0233835 L229.68497,68.596812 C229.658143,68.6169324 229.624609,68.6269925 229.584368,68.6269925 C229.5173,68.6269925 229.45694,68.598489 229.403286,68.5414812 C229.349631,68.4844734 229.322805,68.4190831 229.322805,68.3453083 Z" id="r.-barão-de-ubá" fill="#372E2D" transform="translate(198.491797, 72.354278) scale(1, -1) rotate(90.000000) translate(-198.491797, -72.354278) "></path>
                <g id="icon/navigation" transform="translate(22.736842, 117.073861) scale(-1, 1) translate(-22.736842, -117.073861) translate(11.736842, 97.015038)" fill="#675B59">
                    <g transform="translate(-1.941176, 5.161290)">
                        <path d="M23.7742106,23.6066564 L23.7742106,23.5698222 C23.7742106,23.532988 23.7372681,23.532988 23.7372681,23.4961538 C23.7372681,23.4961538 23.7372681,23.4593196 23.7003256,23.4593196 C23.7003256,23.4593196 23.663383,23.4224854 23.6264405,23.4224854 L23.589498,23.4224854 L17.6786935,21.5807758 L20.0799578,16.9765018 C20.1538428,16.8659992 20.1169003,16.7186624 20.0060727,16.6081598 C19.8952452,16.4976573 19.747475,16.4976573 19.6366475,16.5344915 L15.0188314,18.928714 L13.171705,13.0352432 L13.171705,12.998409 C13.171705,12.9615748 13.1347625,12.9615748 13.1347625,12.9247406 C13.1347625,12.9247406 13.1347625,12.8879064 13.09782,12.8879064 C13.0608774,12.8879064 13.0608774,12.8510722 13.0239349,12.8510722 L12.9869924,12.8510722 C12.9500499,12.8510722 12.9131073,12.814238 12.8761648,12.814238 C12.8392223,12.814238 12.8022797,12.814238 12.7653372,12.8510722 L12.7283947,12.8510722 C12.6914522,12.8510722 12.6914522,12.8879064 12.6545096,12.8879064 C12.6545096,12.8879064 12.6175671,12.8879064 12.6175671,12.9247406 C12.6175671,12.9247406 12.5806246,12.9615748 12.5806246,12.998409 L12.5806246,13.0352432 L10.7334982,18.928714 L6.11568215,16.5344915 C6.00485457,16.4608231 5.85708445,16.4976573 5.74625687,16.6081598 C5.63542929,16.7186624 5.63542929,16.8659992 5.67237181,16.9765018 L8.07363614,21.5439416 L2.16283164,23.3856512 L2.12588911,23.3856512 C2.08894658,23.3856512 2.08894658,23.4224854 2.05200406,23.4224854 C2.05200406,23.4224854 2.01506153,23.4224854 2.01506153,23.4593196 C2.01506153,23.4961538 1.978119,23.4961538 1.978119,23.532988 L1.978119,23.5698222 C1.978119,23.6066564 1.94117647,23.6434906 1.94117647,23.6803248 C1.94117647,23.717159 1.94117647,23.7539932 1.978119,23.7908273 L1.978119,23.8276615 C1.978119,23.8644957 2.01506153,23.8644957 2.01506153,23.9013299 C2.01506153,23.9013299 2.01506153,23.9381641 2.05200406,23.9381641 C2.05200406,23.9381641 2.08894658,23.9749983 2.12588911,23.9749983 L2.16283164,23.9749983 L8.07363614,25.8167079 L5.67237181,30.420982 C5.59848676,30.5314845 5.63542929,30.6788213 5.74625687,30.7893239 C5.82014193,30.8629923 5.89402698,30.8629923 5.96791204,30.8629923 C6.00485457,30.8629923 6.07873962,30.8629923 6.11568215,30.8261581 L10.7334982,28.505604 L12.5806246,34.3990747 L12.5806246,34.4359089 C12.5806246,34.4727431 12.6175671,34.4727431 12.6175671,34.5095773 C12.6175671,34.5095773 12.6175671,34.5464115 12.6545096,34.5464115 C12.6914522,34.5464115 12.6914522,34.5832457 12.7283947,34.5832457 L12.7653372,34.5832457 C12.8022797,34.5832457 12.8392223,34.6200799 12.8761648,34.6200799 C12.9131073,34.6200799 12.9500499,34.6200799 12.9869924,34.5832457 L13.0239349,34.5832457 C13.0608774,34.5832457 13.0608774,34.5464115 13.09782,34.5464115 C13.09782,34.5464115 13.1347625,34.5464115 13.1347625,34.5095773 C13.1347625,34.5095773 13.171705,34.4727431 13.171705,34.4359089 L13.171705,34.3990747 L15.0188314,28.505604 L19.6366475,30.8998265 C19.67359,30.9366606 19.747475,30.9366606 19.7844176,30.9366606 C19.8583026,30.9366606 19.9321877,30.8998265 20.0060727,30.8629923 C20.1169003,30.7524897 20.1169003,30.6051529 20.0799578,30.4946503 L17.6786935,25.8535421 L23.589498,24.0118325 L23.6264405,24.0118325 C23.663383,24.0118325 23.663383,23.9749983 23.7003256,23.9749983 C23.7003256,23.9749983 23.7372681,23.9749983 23.7372681,23.9381641 C23.7372681,23.9013299 23.7742106,23.8644957 23.7742106,23.8644957 C23.8111531,23.7908273 23.8111531,23.7539932 23.8111531,23.717159 C23.8111531,23.6803248 23.8111531,23.6434906 23.7742106,23.6066564 Z M6.7067626,17.5658488 L10.5487855,19.5548952 L10.1054752,20.9545945 L8.70165912,21.3966048 L6.7067626,17.5658488 Z M10.2532453,21.5439416 L12.1373142,23.4224854 L4.30549827,23.4224854 L10.2532453,21.5439416 Z M4.30549827,24.0118325 L12.1373142,24.0118325 L10.2532453,25.8903763 L4.30549827,24.0118325 Z M6.7067626,29.8684691 L8.70165912,26.0377131 L10.1054752,26.4797234 L10.5487855,27.8794227 L6.7067626,29.8684691 Z M12.5806246,32.2626916 L10.6965556,26.3323866 L12.5806246,24.4538428 L12.5806246,32.2626916 Z M12.5806246,22.9436409 L10.6965556,21.0650971 L12.5806246,15.1347922 L12.5806246,22.9436409 Z M19.045567,17.5658488 L17.0506705,21.3966048 L15.6468544,20.9545945 L15.2035441,19.5548952 L19.045567,17.5658488 Z M13.171705,15.1716263 L15.055774,21.1019313 L13.171705,22.9804751 L13.171705,15.1716263 Z M13.171705,32.2995258 L13.171705,24.490677 L15.055774,26.3692208 L13.171705,32.2995258 Z M19.045567,29.8684691 L15.2035441,27.8794227 L15.6468544,26.4797234 L17.0506705,26.0377131 L19.045567,29.8684691 Z M15.4990843,25.8903763 L13.6150154,24.0118325 L21.4468313,24.0118325 L15.4990843,25.8903763 Z M13.6519579,23.4224854 L15.5360268,21.5439416 L21.4837739,23.4224854 L13.6519579,23.4224854 Z" id="Shape" fill-rule="nonzero" transform="translate(12.876165, 23.717159) rotate(-10.000000) translate(-12.876165, -23.717159) "></path>
                        <path d="M8.38945233,8.64301586 L8.38945233,0.306489924 C8.38945233,0.102162286 8.52470318,0 8.79520893,0 C9.02472897,0 9.23785152,0.187978607 9.43458297,0.56394146 L12.7544097,7.08604705 L12.7544097,0.294230327 C12.7544097,0.098075795 12.8896606,0 13.1601663,0 C13.4306721,0 13.5659229,0.098075795 13.5659229,0.294230327 L13.5659229,8.64301586 C13.5659229,8.74109313 13.5249378,8.81873646 13.4429664,8.8759482 C13.3609949,8.93315994 13.2667292,8.96176538 13.1601663,8.96176538 C12.9552377,8.96176538 12.7749033,8.80647871 12.6191575,8.4959007 L9.20096554,1.86345874 L9.20096554,8.64301586 C9.20096554,8.74109313 9.15998043,8.81873646 9.07800899,8.8759482 C8.99603755,8.93315994 8.90177181,8.96176538 8.79520893,8.96176538 C8.68044892,8.96176538 8.58413392,8.93315994 8.50626105,8.8759482 C8.42838818,8.81873646 8.38945233,8.74109313 8.38945233,8.64301586 Z" id="N"></path>
                    </g>
                </g>
            </g>
        </g>
    </g>
</svg>