<svg width="40px" height="40px" viewBox="0 0 40 40" version="1.1" xmlns="http://www.w3.org/2000/svg" xmlns:xlink="http://www.w3.org/1999/xlink">
    <g id="Symbols" stroke="none" stroke-width="1" fill="none" fill-rule="evenodd">
        <g id="icon/menulogo_mobile" fill="#372E2D">
            <g id="Fill-1">
                <path d="M27.2330784,26.8761658 C27.2248565,28.9209277 26.4121508,30.0467169 25.7638836,30.5564843 C24.7728253,31.3363146 23.6356698,31.6848033 22.3783477,31.6506501 C22.2746249,31.6481203 22.1310575,31.6683592 22.1032294,31.5412336 C22.0690768,31.3850145 22.2183364,31.3850145 22.3214267,31.3742626 C22.8520571,31.3211355 23.1284403,30.9359638 23.1316025,30.1605607 C23.139192,28.2796074 23.1777718,18.8457476 23.182199,17.7977517 C23.1847288,17.1070991 23.039264,16.7143378 22.359374,16.5309227 C22.2746249,16.5075215 22.1645776,16.5024618 22.1601504,16.4031646 C22.1519285,16.2437833 22.2948635,16.2564326 22.3966889,16.2558001 C24.0872432,16.2450482 25.5020469,16.8452582 26.5203007,18.2196064 C27.0857162,18.9823602 27.2197968,19.8096254 27.2469924,20.7115217 C27.2786152,21.7709019 27.2280188,25.8819296 27.2330784,26.8761658 M21.0027563,31.6076425 C20.9192721,31.6304112 20.8300959,31.6449579 20.7434494,31.6430605 C19.4304712,31.6152321 18.2237455,31.2781278 17.1890478,30.4287262 C16.4667833,29.8354733 16.0923695,29.0524806 15.9968687,28.1455247 C15.9254012,27.4656239 15.8912485,26.7806635 15.8950433,26.0938056 C15.9247687,20.6988724 15.9424775,15.305204 15.9652459,9.91153569 C15.9684081,9.08553535 16.8083095,9.08806521 16.8083095,9.08806521 L19.2616055,9.09818467 C19.2616055,9.09818467 20.0123305,9.101347 20.0091683,9.92734733 C20.0015788,11.939221 19.9585718,27.2031506 19.9465551,30.3091902 C19.9440253,30.913195 20.2020673,31.1693437 20.777602,31.3527587 C20.8604538,31.3793223 20.94963,31.3869119 21.0305844,31.4179027 C21.05778,31.4280222 21.0849756,31.4868415 21.0799159,31.5184648 C21.0742238,31.5532504 21.035644,31.5994204 21.0027563,31.6076425 M14.0773653,16.2039379 C14.0590241,16.3095597 13.9445496,16.3171493 13.8408268,16.3247389 C11.9320752,16.4695736 9.85382548,15.1186266 9.37948363,13.401482 C9.1151171,12.4464586 9.24160826,11.1631855 9.24413809,10.5427366 C9.24666791,9.94758624 9.08918642,9.51434716 8.47064464,9.34231647 C8.37577627,9.3157529 8.20311584,9.32776975 8.24485792,9.15320919 C8.27268598,9.03240822 8.40423679,9.07035617 8.49151569,9.07098864 C10.6532496,9.08237302 13.1767482,10.2612893 13.0976913,13.2926978 C13.0679659,14.4418882 13.1027509,13.7303642 13.0831448,14.8795545 C13.0730255,15.453201 13.2469508,15.8706284 13.8541084,16.0059761 C13.9679505,16.0312748 14.1045609,16.0508812 14.0773653,16.2039379 M20.0806358,0.00016414518 C9.03606013,-0.0441084608 0.045700937,8.87302684 0.000164119437,19.919042 C-0.0441077865,30.9650572 8.87415144,39.9555585 19.9193595,39.9998312 C30.9645676,40.0447362 39.9549268,31.1269685 39.9998312,20.0809533 C40.0447355,9.03557055 31.1264763,0.0444367511 20.0806358,0.00016414518"></path>
            </g>
        </g>
    </g>
</svg>