<svg xmlns="http://www.w3.org/2000/svg" width="297" height="254" viewBox="0 0 297 254">
    <g fill="#FFF" fill-rule="evenodd">
        <path d="M289.98 142c1.977 0 2.17.353 1.948 2.247-1.002 8.548-7.535 17.785-19.688 17.894-10.312.089-31.63.057-31.975.057-6.03.002-6.03.002-7.968 5.948-.143.447-.258.928-.854.844-.463-.061-.448-.651-.44-1.054l.002-22.615c0-1.457.782-3.321 3.485-3.321h55.49M179.066 200.003c.587 0 1.088.01 1.758.01.768 0 2.138.11 2.138.652 0 .525-1.095.666-1.806.815-2.536.542-2.99 2.164-2.99 4.787v40.626c0 3.297.14 4.665 3.663 5.595.33.086 1.171.218 1.171.85 0 .655-1.529.662-2.174.662-4.949 0-9.825-.764-14.378-2.684-6-2.53-9.705-6.921-10.64-13.344-1.067-7.366-1.09-14.724.006-22.09.992-6.69 4.914-11.188 11.243-13.642 3.81-1.478 7.846-2.293 12.009-2.237M192.934 200.003c-.584 0-1.085.01-1.758.01-.768 0-2.138.11-2.138.652 0 .525 1.095.666 1.806.815 2.538.542 2.99 2.164 2.99 4.787v40.626c0 3.297-.137 4.665-3.663 5.595-.33.086-1.171.218-1.171.85 0 .655 1.529.662 2.174.662 4.949 0 9.825-.764 14.378-2.684 6-2.53 9.705-6.921 10.64-13.344 1.067-7.366 1.09-14.724-.006-22.09-.992-6.69-4.911-11.188-11.243-13.642-3.81-1.478-7.846-2.293-12.009-2.237M155 167.68c.043-3.87.02-7.764 1.07-11.53 1.962-7.048 6.907-11.047 13.995-12.875 3.646-.94 7.345-1.275 11.077-1.275 1.58 0 1.67.578 1.672.746.005.189-.03.612-.917.796-3.787.793-3.878 2.165-3.89 5.88l.002 38.284c0 1.781.447 4.527 3.138 4.527 2.385 0 2.457 1.767.278 1.767-6.54 0-13.028-.957-18.648-4.77-3.963-2.689-6.047-6.472-6.977-11-.717-3.49-.71-7.02-.8-10.55M217 167.68c-.043-3.87-.02-7.764-1.07-11.53-1.964-7.048-6.907-11.047-13.995-12.875-3.643-.94-7.345-1.275-11.074-1.275-1.583 0-1.673.578-1.675.746-.005.189.032.612.917.796 3.79.793 3.88 2.165 3.89 5.88 0 13.34-.063 37.026-.063 38.284 0 1.781-.386 4.527-3.077 4.527-2.385 0-2.457 1.767-.278 1.767 6.54 0 13.028-.957 18.648-4.77 3.963-2.689 6.05-6.472 6.98-11 .714-3.49.707-7.02.797-10.55M251.854 254c-6.284-.076-10.87-5.605-9.66-11.192.506-2.35 1.485-4.53 2.723-6.611 7.36-12.372 31.778-54.197 36.404-62.857.606-1.128 1.347-2.626 2.189-2.293.924.367.34 1.865-.118 3.177-5.798 17.947-19.554 64.567-21.155 69.778-.709 2.303-1.758 4.442-3.246 6.368-1.898 2.455-4.522 3.456-7.137 3.63M142.784 211h-36.566c-.674 0-1.218-.447-1.218-1.001 0-.552.544-.999 1.218-.999h36.566c.672 0 1.216.447 1.216.999 0 .554-.544 1.001-1.216 1.001M138.784 231h-36.568c-.672 0-1.216-.449-1.216-1.001 0-.552.544-.999 1.216-.999h36.568c.672 0 1.216.447 1.216.999s-.544 1.001-1.216 1.001"/>
        <path d="M110.224 253c-.082 0-.166-.01-.253-.027a1.212 1.212 0 0 1-.945-1.436l13.55-63.575a1.227 1.227 0 0 1 1.45-.936c.662.14 1.088.784.947 1.436l-13.552 63.575c-.12.571-.63.963-1.197.963M122.227 253c-.084 0-.168-.01-.255-.027a1.208 1.208 0 0 1-.945-1.436l13.55-63.575a1.23 1.23 0 0 1 1.452-.936c.66.14 1.083.784.945 1.436l-13.554 63.575c-.119.571-.626.963-1.193.963M287.183 1.887s6.754 4.645-.654 10.922c-7.408 6.277-18.12 13.72-18.912 14.249-.791.533-1.828 1.258-2.392.793-.556-.46.052-1.753.383-2.451 1.041-2.173 6.999-15.185 10.802-20.967 1.419-2.15 5.205-7.15 10.773-2.546M117.683 46.134c0-3.278-.894-5.67-4.373-6.605-.538-.144-1.503-.073-1.276-1.042.154-.66.895-.458 1.388-.458 12.149.02 26.361 6.466 25.985 23.193-.145 6.341.037 2.412-.047 8.758-.04 3.165.944 5.46 4.358 6.194.643.137 1.41.24 1.264 1.086-.102.587-.748.629-1.329.675-10.725.84-22.44-6.568-25.147-16.03-1.503-5.267-.823-12.346-.823-15.771M62 95.395c.014 2.652-.312 5.272-.8 7.839-.68 3.578-2.38 6.79-5.113 9.255-5.879 5.304-12.977 7.454-20.8 7.509-.557.004-1.33.061-1.285-.8.03-.543.631-.557 1.086-.693 3.735-1.108 4.886-2.477 5.188-6.248.094-1.19.045-70.312.045-70.312s-.149-3.943 3.796-3.943L58.19 38c3.911 0 3.797 3.958 3.797 3.958s-.047 44.46.013 53.437M0 96.395c0 9.991 2.928 15.074 5.93 17.741 5.918 5.26 12.96 6.807 20.784 6.862.556.004 1.329.061 1.284-.8-.03-.543-.631-.557-1.086-.693-3.735-1.108-4.886-2.477-5.188-6.248-.094-1.19-.045-70.312-.045-70.312s.225-3.943-3.797-3.943L3.81 39c-4.064 0-3.8 3.958-3.8 3.958L0 96.395M101.911 46.08c0-3.13 1.264-5.625 4.318-6.515.339-.099.698-.116 1.049-.165.38-.054.692-.273.72-.63.046-.674-.564-.692-.982-.719-.94-.056-1.895-.08-2.832.005-6.598.606-12.697 2.476-17.673 7.092-3.509 3.258-5.843 7.245-6.32 12.036-.426 4.225-.006 60.022-.006 60.022s.21 2.752 2.87 2.771c5.2.032 10.398.027 15.597.005 3.086-.015 3.257-3.177 3.257-3.177l.002-70.724M176.87 112.913c.26 3.206 1.398 4.573 4.495 5.538.446.14.93.177 1.365.34.145.057.294.368.267.535-.033.183-.237.432-.414.479a5.33 5.33 0 0 1-1.393.195c-7.06-.124-13.556-1.89-19.137-6.392-3.904-3.145-5.932-7.302-6.462-12.132a98.482 98.482 0 0 1-.59-10.92c.036-28.72.019-57.439.019-86.155C155.023.005 159.54 0 159.54 0l13.194.002s4.034-.002 4.034 4.399c.005 10.71 0 107.224.102 108.512M216.966 94.458c0 10.893-4.417 16.901-7.953 19.633-5.397 4.17-11.607 6.053-18.479 5.9-.564-.012-1.355.102-1.507-.577-.187-.832.629-.837 1.19-.896 2.9-.293 4.403-2.35 4.403-6.48l.002-65.843c0-3.68-.805-5.77-4.526-6.73-.46-.12-1.064-.148-1.094-.676-.048-.844.74-.782 1.292-.787 9.242-.094 16.987 3.07 22.587 10.37 3.103 4.046 3.855 8.454 4.027 13.253.198 5.641.008 27.537.058 32.833M291.578 115.14c0 2.639 1.003 3.553 3.406 4.238.442.126.92.108 1.372.212.328.077.61.267.642.677.038.494-.387.623-.661.633-1.385.054-2.796.19-4.161.01-6.087-.801-11.626-2.822-16.095-7.388-2.56-2.62-4.045-5.743-4.64-9.266-.507-3.002-.809-6.046-.799-9.13.058-15.789.044-49.022.007-49.845-.15-3.267-2.096-4.638-4.904-5.06-.925-.139-1.14-1.219.233-1.219L270.83 39c19.088 0 20.667 15.581 20.75 21.702v54.438zM231.015 99.88c-.377-9.725 6.384-17.156 14.414-20.234 5.487-2.103 11.34-1.68 12.124-1.448.184.055.388.307.43.503.094.411-.22.713-.549.76-1.524.207-2.992.334-4.134 1.667-1.11 1.293-.866 7.627-.866 7.627l-.008 24.634s-.499 6.113 4.596 6.113c.455 0 1.008.162.914.804-.087.588-.653.588-1.098.623-10.453.824-22.468-5.587-25.244-16.062-.467-1.771-.395-3.52-.579-4.987M258 50c0 6.074-4.923 11-10.999 11C240.927 61 236 56.074 236 50c0-6.077 4.927-11 11.001-11C253.077 39 258 43.923 258 50"/>
    </g>
</svg>
