<svg width="20px" height="20px" viewBox="0 0 20 20" version="1.1" xmlns="http://www.w3.org/2000/svg" xmlns:xlink="http://www.w3.org/1999/xlink">
    <g id="Symbols" stroke="none" stroke-width="1" fill="none" fill-rule="evenodd">
        <g id="icon/urbamaphover" fill="#52B2A1">
            <path d="M13.6165392,13.4380829 C13.6124282,14.4604639 13.2060754,15.0233584 12.8819418,15.2782422 C12.3864127,15.6681573 11.8178349,15.8424016 11.1891738,15.8253251 C11.1373125,15.8240601 11.0655287,15.8341796 11.0516147,15.7706168 C11.0345384,15.6925073 11.1091682,15.6925073 11.1607133,15.6871313 C11.4260285,15.6605677 11.5642201,15.4679819 11.5658013,15.0802804 C11.569596,14.1398037 11.5888859,9.42287378 11.5910995,8.89887587 C11.5923644,8.55354954 11.519632,8.35716891 11.179687,8.26546137 C11.1373125,8.25376075 11.0822888,8.25123089 11.0800752,8.20158232 C11.0759643,8.12189163 11.1474318,8.12821629 11.1983444,8.12790006 C12.0436216,8.1225241 12.7510234,8.42262912 13.2601504,9.10980321 C13.5428581,9.49118009 13.6098984,9.90481272 13.6234962,10.3557608 C13.6393076,10.8854509 13.6140094,12.9409648 13.6165392,13.4380829 M10.5013782,15.8038212 C10.4596361,15.8152056 10.4150479,15.822479 10.3717247,15.8215303 C9.7152356,15.807616 9.11187277,15.6390639 8.59452392,15.2143631 C8.23339166,14.9177366 8.04618474,14.5262403 7.99843433,14.0727623 C7.96270058,13.732812 7.94562427,13.3903317 7.94752164,13.0469028 C7.96238435,10.3494362 7.97123873,7.65260201 7.98262294,4.95576784 C7.98420407,4.54276768 8.40415473,4.54403261 8.40415473,4.54403261 L9.63080275,4.54909233 C9.63080275,4.54909233 10.0061653,4.5506735 10.0045841,4.96367367 C10.0007894,5.96961052 9.97928589,13.6015753 9.97327756,15.1545951 C9.97201265,15.4565975 10.1010336,15.5846718 10.388801,15.6763794 C10.4302269,15.6896612 10.474815,15.6934559 10.5152922,15.7089514 C10.52889,15.7140111 10.5424878,15.7434207 10.539958,15.7592324 C10.5371119,15.7766252 10.517822,15.7997102 10.5013782,15.8038212 M7.03868265,8.10196896 C7.02951204,8.15477986 6.9722748,8.15857465 6.92041342,8.16236944 C5.96603762,8.23478678 4.92691274,7.55931331 4.68974181,6.70074098 C4.55755855,6.2232293 4.62080413,5.58159275 4.62206904,5.27136828 C4.62333396,4.97379312 4.54459321,4.75717358 4.23532232,4.67115823 C4.18788814,4.65787645 4.10155792,4.66388488 4.12242896,4.5766046 C4.13634299,4.51620411 4.20211839,4.53517809 4.24575784,4.53549432 C5.3266248,4.54118651 6.58837412,5.13064464 6.54884564,6.64634892 C6.53398293,7.2209441 6.55137546,6.86518209 6.5415724,7.43977727 C6.53651275,7.72660051 6.62347542,7.93531422 6.92705421,8.00298806 C6.98397523,8.01563738 7.05228045,8.0254406 7.03868265,8.10196896 M10.0403179,8.20725899e-05 C4.51803006,-0.0220542304 0.0228504685,4.43651342 8.20597186e-05,9.95952101 C-0.0220538933,15.4825286 4.43707572,19.9777793 9.95967976,19.9999156 C15.4822838,20.0223681 19.9774634,15.5634842 19.9999156,10.0404766 C20.0223678,4.51778528 15.5632381,0.0222183756 10.0403179,8.20725899e-05"></path>
        </g>
    </g>
</svg>