<svg width="20px" height="20px" viewBox="0 0 20 20" version="1.1" xmlns="http://www.w3.org/2000/svg" xmlns:xlink="http://www.w3.org/1999/xlink">
    <g id="Symbols" stroke="none" stroke-width="1" fill="none" fill-rule="evenodd">
        <g id="icon/maps" fill="#FFFFFF">
            <g>
                <path d="M10.2278807,6.66666667 C8.99746814,6.66666667 8,7.6641348 8,8.89454739 C8,10.12496 8.99746814,11.1223616 10.2278807,11.1223616 C11.4582933,11.1223616 12.4557614,10.12496 12.4557614,8.89454739 C12.4557614,7.6641348 11.4582933,6.66666667 10.2278807,6.66666667" id="Fill-1"></path>
                <path d="M9.98313392,15.51836 C9.90220236,15.4492087 9.81255203,15.3712056 9.71657891,15.2858148 C9.71491503,15.2842841 9.7134508,15.2831526 9.71205314,15.2817549 C8.37215666,14.0911426 5.72584115,11.4028971 5.72584115,8.745134 C5.72570803,6.41289416 7.62267453,4.48591111 9.9541157,4.44897278 C9.96389936,4.44897278 9.97348337,4.44850689 9.98313392,4.448041 C9.99271792,4.44850689 10.0022354,4.44897278 10.0120856,4.44897278 C12.3437264,4.485778 14.2404933,6.41289416 14.2404933,8.745134 C14.2404933,11.5965072 11.1938461,14.4838204 9.98313392,15.51836 M9.98300081,0 C4.469605,0 0,4.46973811 0,9.98313392 C0,15.4963966 4.469605,19.9664675 9.98300081,19.9664675 C15.4963966,19.9664675 19.9663344,15.4963966 19.9663344,9.98313392 C19.9663344,4.46973811 15.4963966,0 9.98300081,0" id="Fill-3"></path>
            </g>
        </g>
    </g>
</svg>