<svg xmlns="http://www.w3.org/2000/svg" width="12" height="17" viewBox="0 0 12 17">
    <path fill="#372E2D" fill-rule="nonzero" d="M9.642 4.74C8.428 2.752 7.078 1.03 6.381.18a.492.492 0 0 0-.762 0c-.697.85-2.047 2.572-3.261 4.562C.793 7.306 0 9.426 0 11.042 0 14.329 2.692 17 6 17s6-2.672 6-5.957c0-1.618-.793-3.738-2.358-6.302zM6.823 14.807c-.35.089-.714.134-1.08.134-2.242 0-4.066-1.682-4.066-3.75 0-.499.133-1.082.394-1.733a.257.257 0 0 1 .294-.146c.124.027.208.134.195.25-.015.14-.023.277-.023.406 0 2.25 1.826 4.134 4.247 4.382.12.013.215.102.224.214a.235.235 0 0 1-.185.243z"/>
</svg>
