<svg width="18px" height="19px" viewBox="0 0 18 19" version="1.1" xmlns="http://www.w3.org/2000/svg" xmlns:xlink="http://www.w3.org/1999/xlink">
    <g id="Symbols" stroke="none" stroke-width="1" fill="none" fill-rule="evenodd">
        <g id="icon/mercados" fill="#372E2D">
            <g>
                <path d="M17.8719,10.0844 L17.8719,4.2624 C17.8719,4.0714 17.7179,3.8814 17.5249,3.8814 L3.5819,2.8924 L3.2349,1.4074 C3.0809,0.6084 2.3109,0.0004 1.4639,0.0004 L0.3849,0.0004 C0.1539,0.0004 -9.99999993e-05,0.1514 -9.99999993e-05,0.3814 C-9.99999993e-05,0.6084 0.1539,0.7614 0.3849,0.7614 L1.4639,0.7614 C1.9639,0.7614 2.3879,1.1044 2.5039,1.5604 L4.7759,12.1014 C4.9689,12.9764 5.7389,13.5854 6.6639,13.5854 L17.4869,13.5854 C17.7179,13.5854 17.8719,13.4334 17.8719,13.2034 C17.8719,12.9764 17.7179,12.8234 17.4869,12.8234 L6.6639,12.8234 C6.2779,12.8234 5.8929,12.6334 5.7009,12.2914 L17.5639,10.4264 C17.7559,10.4264 17.8719,10.2734 17.8719,10.0844 Z M6.1239,11.4914 L5.4689,11.5674 L4.8919,8.8654 L6.1629,8.8654 L6.1629,11.4914 L6.1239,11.4914 Z M6.1239,8.1054 L4.6989,8.1054 L4.3519,6.5074 L6.1239,6.5074 L6.1239,8.1054 Z M6.1239,5.7454 L4.1979,5.7454 L3.7359,3.6524 L6.1239,3.8054 L6.1239,5.7454 Z M9.9759,10.8834 L6.8949,11.3784 L6.8949,8.9034 L9.9759,8.9034 L9.9759,10.8834 Z M6.8959,8.1054 L9.9759,8.1054 L9.9759,6.5074 L6.8959,6.5074 L6.8959,8.1054 Z M9.9759,5.7454 L6.8949,5.7454 L6.8949,3.8814 L9.9759,4.1094 L9.9759,5.7454 Z M13.8659,10.2734 L10.7849,10.7694 L10.7849,8.8654 L13.8659,8.8654 L13.8659,10.2734 Z M10.7849,8.1054 L13.8659,8.1054 L13.8659,6.5074 L10.7849,6.5074 L10.7849,8.1054 Z M13.8659,5.7454 L10.7849,5.7454 L10.7849,4.1864 L13.8659,4.4144 L13.8659,5.7454 Z M17.1019,9.7414 L14.5979,10.1224 L14.5979,8.8274 L17.1019,8.8274 L17.1019,9.7414 Z M14.5969,8.1054 L17.1019,8.1054 L17.1019,6.5074 L14.5969,6.5074 L14.5969,8.1054 Z M17.1019,5.7454 L14.5979,5.7454 L14.5979,4.4514 L17.1019,4.6434 L17.1019,5.7454 Z" id="Fill-7"></path>
                <path d="M15.5223,14.2318 C14.4053,14.2318 13.4813,15.1448 13.4813,16.2488 C13.4813,17.3518 14.4053,18.2658 15.5223,18.2658 C16.6393,18.2658 17.5633,17.3518 17.5633,16.2488 C17.5633,15.1448 16.6393,14.2318 15.5223,14.2318" id="Path"></path>
                <path d="M7.7802,14.2318 C6.6642,14.2318 5.7392,15.1448 5.7392,16.2488 C5.7392,17.3518 6.6642,18.2658 7.7802,18.2658 C8.8972,18.2658 9.8212,17.3518 9.8212,16.2488 C9.8212,15.1448 8.8972,14.2318 7.7802,14.2318" id="Fill-1"></path>
            </g>
        </g>
    </g>
</svg>