<svg width="15px" height="21px" viewBox="0 0 15 21" version="1.1" xmlns="http://www.w3.org/2000/svg" xmlns:xlink="http://www.w3.org/1999/xlink">
    <g id="Symbols" stroke="none" stroke-width="1" fill="none" fill-rule="evenodd">
        <g id="icon/metro" fill="#372E2D">
            <g id="Fill-1">
                <path d="M3.7861,1.6208 C4.1801,1.2098 4.6881,0.9578 5.2421,0.8918 L5.5961,1.5218 C5.5981,1.5208 5.6011,1.5208 5.6041,1.5198 C5.8091,1.4928 6.2231,1.4838 6.5771,1.4808 C6.5731,1.4748 6.5721,1.4688 6.5681,1.4618 L6.2381,0.8698 L7.9471,0.8698 L7.6161,1.4618 C7.6131,1.4688 7.6111,1.4748 7.6081,1.4808 C7.9621,1.4838 8.3751,1.4928 8.5801,1.5198 C8.5831,1.5208 8.5861,1.5208 8.5891,1.5218 L8.9421,0.8918 C9.4961,0.9578 10.0051,1.2098 10.3991,1.6208 C10.4851,1.7108 10.6021,1.7558 10.7181,1.7558 C10.8271,1.7558 10.9361,1.7178 11.0221,1.6388 C11.1981,1.4738 11.2061,1.1968 11.0391,1.0218 C10.4341,0.3918 9.6261,0.0348 8.7561,0.0058 C8.7311,0.0018 8.7061,0.0018 8.6821,0.0018 C8.6681,0.0018 8.6561,-0.0002 8.6431,-0.0002 L5.5411,-0.0002 C5.5291,-0.0002 5.5171,0.0018 5.5051,0.0018 C5.4791,0.0008 5.4541,0.0018 5.4291,0.0058 C4.5581,0.0348 3.7511,0.3918 3.1461,1.0218 C2.9791,1.1968 2.9871,1.4738 3.1631,1.6388 C3.3401,1.8038 3.6191,1.7948 3.7861,1.6208 Z M9.6111,17.9338 L10.1401,18.4268 L4.0441,18.4268 L4.5951,17.9338 L3.2021,17.9338 L0.2391,20.3898 L1.8231,20.3898 L2.7241,19.5938 L11.4601,19.5938 L12.3611,20.3898 L13.9451,20.3898 L10.9821,17.9338 L9.6111,17.9338 Z M3.5551,17.2538 L10.6301,17.2538 C14.3131,17.2538 14.3371,13.3918 14.1011,11.0368 C13.9871,9.8918 13.8331,8.7478 13.7431,7.5998 C13.5241,4.8148 11.2801,2.4698 8.4741,2.0988 C8.1711,2.0578 7.3691,2.0588 7.0931,2.0608 C6.8151,2.0588 6.0141,2.0578 5.7101,2.0988 C2.9041,2.4698 0.6611,4.8148 0.4411,7.5998 C0.3511,8.7478 0.1971,9.8918 0.0831,11.0368 C-0.1519,13.3918 -0.1289,17.2538 3.5551,17.2538 Z M11.1101,14.9018 C10.4871,14.9018 9.9821,14.4028 9.9821,13.7868 C9.9821,13.1718 10.4871,12.6738 11.1101,12.6738 C11.7331,12.6738 12.2381,13.1718 12.2381,13.7868 C12.2381,14.4028 11.7331,14.9018 11.1101,14.9018 Z M5.6751,3.1838 L8.5091,3.1838 C8.8151,3.1838 9.0621,3.4308 9.0621,3.7308 C9.0621,4.0338 8.8151,4.2788 8.5091,4.2788 L5.6751,4.2788 C5.3691,4.2788 5.1211,4.0338 5.1211,3.7308 C5.1211,3.4308 5.3691,3.1838 5.6751,3.1838 Z M2.0631,6.9858 C2.1601,6.0278 2.9741,5.3008 3.9461,5.2708 C3.9481,5.2708 3.9491,5.2718 3.9491,5.2718 L3.9501,5.2708 L10.2341,5.2708 L10.2341,5.2718 C10.2341,5.2718 10.2361,5.2708 10.2381,5.2708 C11.2101,5.3008 12.0241,6.0278 12.1211,6.9858 C12.1811,7.5598 12.1821,8.1508 12.1181,8.7248 C12.0151,9.6748 11.1671,10.4008 10.1981,10.4178 L10.1981,10.4188 L3.9861,10.4188 L3.9861,10.4178 C3.0171,10.4008 2.1701,9.6748 2.0661,8.7248 C2.0041,8.1508 2.0041,7.5598 2.0631,6.9858 Z M3.0751,12.6738 C3.6971,12.6738 4.2031,13.1718 4.2031,13.7868 C4.2031,14.4028 3.6971,14.9018 3.0751,14.9018 C2.4521,14.9018 1.9461,14.4028 1.9461,13.7868 C1.9471,13.1718 2.4521,12.6738 3.0751,12.6738 Z"></path>
            </g>
        </g>
    </g>
</svg>