<svg xmlns="http://www.w3.org/2000/svg" width="19" height="19" viewBox="0 0 19 19">
    <g fill="#372E2D" fill-rule="nonzero">
        <path d="M15.066 8.943a2.786 2.786 0 0 0-2.783 2.784 2.786 2.786 0 0 0 2.783 2.783 2.786 2.786 0 0 0 2.784-2.783 2.786 2.786 0 0 0-2.784-2.784zM17.785 14.51a3.88 3.88 0 0 1-2.719 1.113 3.88 3.88 0 0 1-2.718-1.113 3.88 3.88 0 0 0-1.178 2.783v1.15c0 .308.249.557.557.557h6.716a.556.556 0 0 0 .557-.557v-1.15c0-1.09-.49-2.075-1.215-2.783zM3.934 0C2.399 0 1.15 1.286 1.15 2.82a2.786 2.786 0 0 0 2.784 2.784A2.786 2.786 0 0 0 6.717 2.82C6.717 1.286 5.468 0 3.934 0zM6.652 5.604a3.88 3.88 0 0 1-2.718 1.113 3.88 3.88 0 0 1-2.719-1.113C.49 6.312 0 7.296 0 8.387V9.5c0 .308.249.557.557.557h6.716A.556.556 0 0 0 7.83 9.5V8.387a3.88 3.88 0 0 0-1.178-2.783zM9.5 2.264c-.58 0-1.149.084-1.704.219.01.113.034.222.034.337 0 .28-.033.553-.09.816a6.13 6.13 0 0 1 1.76-.259c2.809 0 5.176 1.903 5.894 4.486.425.036.836.124 1.211.287-.635-3.347-3.577-5.886-7.105-5.886zM9.5 15.623c-2.797 0-5.156-1.887-5.886-4.453H2.466c.757 3.186 3.62 5.566 7.034 5.566.207 0 .411-.014.615-.03.047-.398.133-.784.27-1.154a6.17 6.17 0 0 1-.885.071z"/>
    </g>
</svg>
