<svg xmlns="http://www.w3.org/2000/svg" width="19" height="17" viewBox="0 0 19 17">
    <path fill="#372E2D" fill-rule="nonzero" d="M.828 3.566a.575.575 0 0 1-.575-.575V1.005C.253.688.51.43.828.43H8.1c.317 0 .575.258.575.575V2.99a.575.575 0 0 1-.575.575H.828zm16.846 0a.575.575 0 0 0 .575-.575V1.005a.575.575 0 0 0-.575-.575h-7.273a.575.575 0 0 0-.575.575V2.99c0 .317.258.575.575.575h7.273zm-4.786 4.286a.576.576 0 0 0 .575-.575V5.29a.575.575 0 0 0-.575-.575H5.614a.575.575 0 0 0-.575.575v1.986c0 .317.258.575.575.575h7.274zm-9.573 0a.575.575 0 0 0 .575-.575V5.29a.575.575 0 0 0-.575-.575H.87a.575.575 0 0 0-.575.575v1.986c0 .317.258.575.575.575h2.445zm14.317 0a.575.575 0 0 0 .575-.575V5.29a.575.575 0 0 0-.575-.575h-2.445a.575.575 0 0 0-.575.575v1.986c0 .317.258.575.575.575h2.445zm-9.53 4.285a.575.575 0 0 0 .574-.575V9.576a.576.576 0 0 0-.575-.575H.828a.576.576 0 0 0-.575.575v1.986c0 .317.258.575.575.575H8.1zm9.572 0a.575.575 0 0 0 .575-.575V9.576a.576.576 0 0 0-.575-.575h-7.273a.576.576 0 0 0-.575.575v1.986c0 .317.258.575.575.575h7.273zm-4.786 4.286a.575.575 0 0 0 .575-.575v-1.986a.575.575 0 0 0-.575-.575H5.614a.575.575 0 0 0-.575.575v1.986c0 .317.258.575.575.575h7.274zm-9.573 0a.575.575 0 0 0 .575-.575v-1.986a.575.575 0 0 0-.575-.575H.87a.575.575 0 0 0-.575.575v1.986c0 .317.258.575.575.575h2.445zm14.317 0a.575.575 0 0 0 .575-.575v-1.986a.575.575 0 0 0-.575-.575h-2.445a.575.575 0 0 0-.575.575v1.986c0 .317.258.575.575.575h2.445z"/>
</svg>
