<svg xmlns="http://www.w3.org/2000/svg" width="18" height="19" viewBox="0 0 18 19">
    <g fill="#372E2D" fill-rule="nonzero">
        <path d="M16.844 3.9l-2.012-2.013a.71.71 0 0 0-1.006 0l-1.51 1.51 3.019 3.019 1.509-1.51a.71.71 0 0 0 0-1.006zM.947 14.942v2.842H3.79zM3.79.731L0 4.521l1.895 1.895.947-.948.474.474-.947.947.947.948L5.21 5.942l.473.474L3.79 8.31l.948.948 3.79-3.79zM12.435 9.522l2.182-2.09-3.04-2.911-9.682 9.273 3.04 2.91 4.46-4.271.498.476-1.013.97 1.013.971 2.027-1.94.506.484-2.026 1.942 1.013.97 1.013-.97.507.485-1.013.97 2.027 1.94L18 14.85z"/>
    </g>
</svg>
