<svg width="20px" height="20px" viewBox="0 0 20 20" version="1.1" xmlns="http://www.w3.org/2000/svg" xmlns:xlink="http://www.w3.org/1999/xlink">
    <g id="Symbols" stroke="none" stroke-width="1" fill="none" fill-rule="evenodd">
        <g id="icon/plantas" fill="#FFEDE8" fill-rule="nonzero">
            <g id="pencil">
                <g>
                    <path d="M9.99973333,0 C4.47709651,0 0,4.4774 0,9.9998 C0,15.5222 4.47709651,20 9.99973333,20 C15.5223701,20 20,15.5224667 20,9.9998 C20,4.47713333 15.5223701,0 9.99973333,0 Z M14.7534984,7.19633333 L13.803692,8.14613333 L11.8702791,6.21286667 L11.1368076,6.94633333 L13.0702205,8.87973333 L8.32805552,13.6214667 L6.39477597,11.6884 L5.66130441,12.4218667 L7.59458396,14.3551333 L7.12204748,14.8276667 L7.11304742,14.8186667 C7.06064707,14.9049333 6.9754465,14.9678667 6.87424583,14.9903333 L5.07136714,15.3923333 C5.04436696,15.3984 5.01690011,15.4013333 4.9897666,15.4013333 C4.89136594,15.4013333 4.79576531,15.3626 4.72489817,15.2915333 C4.63396423,15.2009333 4.59609731,15.0700667 4.62409749,14.9446667 L5.02590017,13.1423333 C5.04856699,13.0412 5.11163408,12.9558 5.19776799,12.9035333 L5.18863459,12.8944 L12.8200188,5.26273333 C12.9318862,5.15106667 13.1136208,5.15106667 13.2254882,5.26306667 L14.7536317,6.79086667 C14.8654991,6.90273333 14.8654991,7.08446667 14.7534984,7.19633333 Z" id="Shape"></path>
                </g>
            </g>
        </g>
    </g>
</svg>