<svg xmlns="http://www.w3.org/2000/svg" width="15" height="20" viewBox="0 0 15 20">
    <g fill="#372E2D" fill-rule="evenodd">
        <path d="M2.966 19.338c-.2.32-.64.44-.96.24l-1.122-.721a.66.66 0 0 1-.16-.961l4.604-6.407L6.41 13.33l-3.443 6.007z"/>
        <path d="M12.056 19.538c-.32.2-.8.12-.96-.24l-5.567-9.73-.36.16c-.922.44-1.923.04-2.363-.803-.44-.84-1.12-2.202-2.362-4.684-1.242-2.443.48-4.686.8-4.165l4.925 7.61 7.247 10.01c.2.44.12.881-.199 1.081l-1.16.761zM12.095 6.643l-.32.521c-.36.52-.881.921-1.4 1.042l-1.122.24-.56 1-.922-1.24.36-.482-.24-1.12c-.12-.52 0-1.163.36-1.682l.322-.522L11.416.196c.04-.08.12-.08.16-.04l.439.28c.04.04.08.12.04.16L9.454 4.841c-.04.081-.04.241.08.281.04.04.12.08.16.12.079.08.239.04.279-.04.522-.802 2.804-4.124 2.804-4.124.039-.04.119-.08.159-.04l.442.28c.04.04.08.12.04.16l-2.604 4.244c-.04.08-.04.241.08.281.04.04.12.08.16.12.08.08.242.04.282-.04.519-.802 2.8-4.124 2.8-4.124.04-.04.123-.08.163-.04l.44.28c0-.04.04.04 0 .12l-2.644 4.324z"/>
    </g>
</svg>
