<svg xmlns="http://www.w3.org/2000/svg" width="19" height="16" viewBox="0 0 19 16">
    <g fill="#372E2D" fill-rule="nonzero">
        <path d="M15.566 1.873c-.287 0-.559.063-.804.17A3.001 3.001 0 0 0 12.09.45c-.761 0-1.454.276-1.982.727A5.265 5.265 0 0 0 6.758 0c-2.73 0-4.946 1.991-5.002 4.465C.732 4.923.02 5.918.02 7.075c0 1.338.949 2.46 2.234 2.783l13.834.091c1.6-.055 2.882-1.319 2.882-2.873 0-1.11-.653-2.072-1.61-2.552.107-.233.169-.49.169-.76 0-1.045-.88-1.891-1.964-1.891zM4.773 14.648c.348-.647.39-3.594.39-3.594S2.687 12.79 2.34 13.437s-.084 1.442.587 1.776c.672.335 1.498.081 1.845-.565zM9.853 14.648c.347-.647.389-3.594.389-3.594S7.768 12.79 7.42 13.437c-.347.647-.084 1.442.588 1.776.671.335 1.497.081 1.845-.565zM13.478 15.213c.672.335 1.498.081 1.845-.565.348-.647.39-3.594.39-3.594s-2.475 1.736-2.822 2.383-.084 1.442.587 1.776z"/>
    </g>
</svg>
