<svg width="10px" height="18px" viewBox="0 0 10 18" version="1.1" xmlns="http://www.w3.org/2000/svg" xmlns:xlink="http://www.w3.org/1999/xlink">
    <g id="Symbols" stroke="none" stroke-width="1" fill="none" fill-rule="evenodd">
        <g id="icon/shopping" fill="#372E2D" fill-rule="nonzero">
            <g id="Shape">
                <path d="M0,18 L3.8445547,18 L3.8445547,13.979587 L6.1554453,13.979587 L6.1554453,18 L10,18 L10,0 L0,0 L0,18 Z M5.70150192,2.12130427 L8.01234762,2.12130427 L8.01234762,4.48454871 L5.70150192,4.48454871 L5.70150192,2.12130427 Z M5.70150192,5.91938389 L8.01234762,5.91938389 L8.01234762,8.28262833 L5.70150192,8.28262833 L5.70150192,5.91938389 Z M5.70150192,9.71737167 L8.01234762,9.71737167 L8.01234762,12.0806161 L5.70150192,12.0806161 L5.70150192,9.71737167 Z M1.98760748,2.12130427 L4.29845318,2.12130427 L4.29845318,4.48454871 L1.98760748,4.48454871 L1.98760748,2.12130427 Z M1.98760748,5.91938389 L4.29845318,5.91938389 L4.29845318,8.28262833 L1.98760748,8.28262833 L1.98760748,5.91938389 Z M1.98760748,9.71737167 L4.29845318,9.71737167 L4.29845318,12.0806161 L1.98760748,12.0806161 L1.98760748,9.71737167 Z"></path>
            </g>
        </g>
    </g>
</svg>