<svg xmlns="http://www.w3.org/2000/svg" width="24" height="17" viewBox="0 0 24 17">
    <path fill="#372E2D" fill-rule="nonzero" d="M1.275 6.82c.53 0 .958.443.958.99v2.974h3.051c.397-1.15 1.451-1.982 2.699-1.982.443 0 .857.113 1.232.298l.65-.673L8.127 6.63a1.012 1.012 0 0 1 0-1.401l4.067-4.206a.935.935 0 0 1 1.355 0l8.131 8.41a1.012 1.012 0 0 1 0 1.402l1.355 1.401a1.014 1.014 0 0 1 0 1.402l-2.71 2.804a.94.94 0 0 1-.677.29.94.94 0 0 1-.678-.29l-1.356-1.402a.941.941 0 0 1-.678.29.94.94 0 0 1-.677-.29L11.22 9.83l-.65.673c.18.387.288.815.288 1.273 0 1.64-1.29 2.974-2.875 2.974-1.248 0-2.302-.832-2.699-1.982H2.233v2.973c0 .547-.429.991-.958.991-.53 0-.959-.444-.959-.99V7.81c0-.547.429-.992.959-.992z"/>
</svg>
