<svg xmlns="http://www.w3.org/2000/svg" width="30" height="32" viewBox="0 0 30 32">
    <path fill="#372E2D" fill-rule="nonzero" d="M14.976 0C6.706 0 0 7.03 0 15.7c0 8.67 6.705 15.7 14.976 15.7 8.27 0 14.975-7.03 14.975-15.7 0-8.67-6.705-15.7-14.975-15.7zm7.064 22.142l-1.067 1.12c-.19.199-.749.323-.767.323-3.377.031-6.628-1.36-9.017-3.865-2.396-2.513-3.724-5.934-3.688-9.486 0-.002.122-.57.312-.768l1.068-1.119c.39-.411 1.14-.597 1.666-.413l.225.079c.524.184 1.074.791 1.22 1.351l.536 2.066c.145.562-.05 1.36-.44 1.77l-.714.747c.7 2.716 2.733 4.847 5.324 5.583l.712-.748c.393-.411 1.154-.616 1.688-.464l1.971.565c.534.154 1.113.727 1.289 1.276l.075.24c.174.549-.002 1.335-.393 1.743z"/>
</svg>
