<svg xmlns="http://www.w3.org/2000/svg" width="14" height="20" viewBox="0 0 14 20">
    <path fill="#372E2D" fill-rule="nonzero" d="M13.19 5.955h-2.632a.812.812 0 0 0-.81.815v2.652c0 .45.363.815.81.815h.507v1.114c0 .446-.36.809-.802.809H7.809V4.464h1.032c.297 0 .57-.164.712-.427a.82.82 0 0 0-.035-.834L7.678.369a.808.808 0 0 0-1.355 0l-1.84 2.834a.82.82 0 0 0-.036.834.809.809 0 0 0 .712.427h1.032v7.696H3.737a.806.806 0 0 1-.802-.809v-1.276a2.144 2.144 0 0 0 1.316-1.98c0-1.18-.953-2.14-2.125-2.14a2.144 2.144 0 1 0-.81 4.12v1.276a2.433 2.433 0 0 0 2.421 2.439h2.454v2.09a2.144 2.144 0 0 0-1.317 1.98C4.874 19.04 5.828 20 7 20s2.126-.96 2.126-2.14c0-.893-.545-1.659-1.317-1.98v-2.09h2.454a2.433 2.433 0 0 0 2.42-2.439v-1.114h.508c.447 0 .809-.365.809-.815V6.77a.812.812 0 0 0-.81-.815z"/>
</svg>
