<svg width="23px" height="16px" viewBox="0 0 23 16" version="1.1" xmlns="http://www.w3.org/2000/svg" xmlns:xlink="http://www.w3.org/1999/xlink">
    <g id="1366-Desktop:-05.Ficha-Tecnica" stroke="none" stroke-width="1" fill="none" fill-rule="evenodd" transform="translate(-374.000000, -191.000000)">
        <g id="CONTENT" transform="translate(32.000000, 105.000000)" fill="#372E2D" fill-rule="nonzero">
            <g id="DIFERENCIAIS_RIGHT" transform="translate(2.000000, 7.000000)">
                <g id="DIFERENCIAIS" transform="translate(338.000000, 0.000000)">
                    <g id="Wifi" transform="translate(2.000000, 77.000000)">
                        <path d="M11.1999956,14.0000089 C10.0708258,14.0000089 9.15442312,14.8959935 9.15442312,16.0000045 C9.15442312,17.1040155 10.0708624,18 11.1999956,18 C12.3291288,18 13.2455681,17.1040155 13.2455681,16.0000045 C13.2455681,14.8959935 12.3291288,14.0000089 11.1999956,14.0000089 Z M22.160153,7.00734293 C19.4245608,3.82467787 15.4295325,2 11.1999956,2 C6.9704587,2 2.97608925,3.82467787 0.239801596,7.00734293 C-0.123655645,7.43001631 -0.0677278842,8.06068034 0.365273038,8.41600369 C0.55684758,8.57332078 0.78937969,8.65069101 1.0218752,8.65069101 C1.31370245,8.65069101 1.60351659,8.52933927 1.80599851,8.29400779 C4.15159708,5.56536501 7.57589136,4.00003131 11.199959,4.00003131 C14.8240267,4.00003131 18.2483209,5.56536501 20.5938829,8.29336363 C20.7964014,8.52869512 21.086179,8.65004686 21.3780428,8.65004686 C21.6105749,8.65004686 21.8437659,8.57335656 22.0353404,8.41535953 C22.4676459,8.06064456 22.5236103,7.42933636 22.160153,7.00734293 Z M11.1999956,5.99999105 C8.17868867,5.99999105 5.32578724,7.3032966 3.37160979,9.57598463 C3.00818915,9.99865801 3.06408031,10.629322 3.49708123,10.9846454 C3.68865577,11.1419625 3.92184672,11.2193327 4.15437883,11.2193327 C4.44620608,11.2193327 4.73602022,11.097981 4.9378433,10.8626495 C6.50133167,9.04333959 8.78419452,7.99998658 11.2000322,7.99998658 C13.6158699,7.99998658 15.8986961,9.04333959 17.46288,10.8626495 C17.6653985,11.0986609 17.955176,11.2193327 18.2463078,11.2193327 C18.4788399,11.2193327 18.7120309,11.1426424 18.903642,10.9846454 C19.3366063,10.629322 19.3924975,9.99801385 19.0291135,9.57598463 C17.074204,7.30333239 14.2213026,5.99999105 11.1999956,5.99999105 Z M11.1999956,9.99998211 C9.38625979,9.99998211 7.67409435,10.7819869 6.50268594,12.1453063 C6.1392287,12.5679797 6.19515646,13.1986437 6.62815738,13.553967 C6.81973193,13.7112841 7.05292287,13.7886186 7.28545498,13.7886186 C7.57728223,13.7886186 7.86709637,13.6673026 8.06891946,13.4319711 C8.85102966,12.5219583 9.99242448,11.9999418 11.1999956,11.9999418 C12.4075667,11.9999418 13.5489982,12.5219583 14.3310718,13.4319711 C14.5335903,13.6679826 14.8233678,13.7886186 15.1145362,13.7886186 C15.3470683,13.7886186 15.5802593,13.7119641 15.7718338,13.553967 C16.2048348,13.1986079 16.2607259,12.5679439 15.8973053,12.1453063 C14.7258603,10.7819869 13.0136948,9.99998211 11.1999956,9.99998211 Z" id="Shape"></path>
                    </g>
                </g>
            </g>
        </g>
    </g>
</svg>