<svg width="82px" height="24px" viewBox="0 0 82 24" version="1.1" xmlns="http://www.w3.org/2000/svg" xmlns:xlink="http://www.w3.org/1999/xlink">
    <g id="Symbols" stroke="none" stroke-width="1" fill="none" fill-rule="evenodd">
        <g id="zonanorte">
            <path d="M4,15 L1.3792751e-16,11 L4,7 L4,0 L82,0 L82,24 L4,24 L4,15 Z" id="Combined-Shape" fill="#675B59"></path>
            <path d="M11.345,15.628 C11.345,15.4759992 11.3889996,15.3280007 11.477,15.184 L15.197,8.356 L11.945,8.356 C11.8169994,8.356 11.7150004,8.30200054 11.639,8.194 C11.5629996,8.08599946 11.525,7.9520008 11.525,7.792 C11.525,7.63999924 11.5609996,7.50800056 11.633,7.396 C11.7050004,7.28399944 11.8089993,7.228 11.945,7.228 L16.421,7.228 C16.6930014,7.228 16.829,7.3479988 16.829,7.588 C16.829,7.73200072 16.7810005,7.88799916 16.685,8.056 L12.965,14.872 L16.601,14.872 C16.7290006,14.872 16.8309996,14.9299994 16.907,15.046 C16.9830004,15.1620006 17.021,15.2919993 17.021,15.436 C17.021,15.5800007 16.9830004,15.7099994 16.907,15.826 C16.8309996,15.9420006 16.7290006,16 16.601,16 L11.741,16 C11.4769987,16 11.345,15.8760012 11.345,15.628 Z M18.212,13.396 L18.212,9.904 C18.212,8.9839954 18.4559976,8.30800216 18.944,7.876 C19.4320024,7.44399784 20.0839959,7.228 20.9,7.228 C21.7160041,7.228 22.3699975,7.44399784 22.862,7.876 C23.3540025,8.30800216 23.6,8.9839954 23.6,9.904 L23.6,13.396 C23.6,14.3160046 23.3540025,14.9919978 22.862,15.424 C22.3699975,15.8560022 21.7160041,16.072 20.9,16.072 C20.0839959,16.072 19.4320024,15.8560022 18.944,15.424 C18.4559976,14.9919978 18.212,14.3160046 18.212,13.396 Z M19.484,13.396 C19.484,14.4280052 19.9559953,14.944 20.9,14.944 C21.3560023,14.944 21.7079988,14.8160013 21.956,14.56 C22.2040012,14.3039987 22.328,13.9160026 22.328,13.396 L22.328,9.904 C22.328,9.3839974 22.2040012,8.99600128 21.956,8.74 C21.7079988,8.48399872 21.3560023,8.356 20.9,8.356 C19.9559953,8.356 19.484,8.87199484 19.484,9.904 L19.484,13.396 Z M25.463,15.58 L25.463,7.648 C25.463,7.3679986 25.6749979,7.228 26.099,7.228 C26.3230011,7.228 26.5029993,7.2779995 26.639,7.378 C26.7750007,7.4780005 26.9149993,7.6679986 27.059,7.948 L29.723,13.144 L29.723,7.636 C29.723,7.49999932 29.7849994,7.39800034 29.909,7.33 C30.0330006,7.26199966 30.1829991,7.228 30.359,7.228 C30.5350009,7.228 30.6849994,7.26199966 30.809,7.33 C30.9330006,7.39800034 30.995,7.49999932 30.995,7.636 L30.995,15.58 C30.995,15.7080006 30.9330006,15.8099996 30.809,15.886 C30.6849994,15.9620004 30.5350009,16 30.359,16 C30.0229983,16 29.7710008,15.8440016 29.603,15.532 L26.735,10.072 L26.735,15.58 C26.735,15.7080006 26.6730006,15.8099996 26.549,15.886 C26.4249994,15.9620004 26.2750009,16 26.099,16 C25.9309992,16 25.7830006,15.9620004 25.655,15.886 C25.5269994,15.8099996 25.463,15.7080006 25.463,15.58 Z M32.33,15.472 C32.33,15.4239998 32.334,15.3880001 32.342,15.364 L34.73,7.588 C34.8260005,7.29999856 35.0939978,7.156 35.534,7.156 C35.9820022,7.156 36.2539995,7.29999856 36.35,7.588 L38.726,15.364 C38.7420001,15.4120002 38.75,15.4479999 38.75,15.472 C38.75,15.6160007 38.6640009,15.7399995 38.492,15.844 C38.3199991,15.9480005 38.138001,16 37.946,16 C37.7139988,16 37.5700003,15.9120009 37.514,15.736 L37.022,14.032 L34.058,14.032 L33.566,15.736 C33.5099997,15.9120009 33.3620012,16 33.122,16 C32.929999,16 32.7500008,15.9480005 32.582,15.844 C32.4139992,15.7399995 32.33,15.6160007 32.33,15.472 Z M34.334,13.012 L36.734,13.012 L35.534,8.896 L34.334,13.012 Z M42.848,15.58 L42.848,7.648 C42.848,7.3679986 43.0599979,7.228 43.484,7.228 C43.7080011,7.228 43.8879993,7.2779995 44.024,7.378 C44.1600007,7.4780005 44.2999993,7.6679986 44.444,7.948 L47.108,13.144 L47.108,7.636 C47.108,7.49999932 47.1699994,7.39800034 47.294,7.33 C47.4180006,7.26199966 47.5679991,7.228 47.744,7.228 C47.9200009,7.228 48.0699994,7.26199966 48.194,7.33 C48.3180006,7.39800034 48.38,7.49999932 48.38,7.636 L48.38,15.58 C48.38,15.7080006 48.3180006,15.8099996 48.194,15.886 C48.0699994,15.9620004 47.9200009,16 47.744,16 C47.4079983,16 47.1560008,15.8440016 46.988,15.532 L44.12,10.072 L44.12,15.58 C44.12,15.7080006 44.0580006,15.8099996 43.934,15.886 C43.8099994,15.9620004 43.6600009,16 43.484,16 C43.3159992,16 43.1680006,15.9620004 43.04,15.886 C42.9119994,15.8099996 42.848,15.7080006 42.848,15.58 Z M50.255,13.396 L50.255,9.904 C50.255,8.9839954 50.4989976,8.30800216 50.987,7.876 C51.4750024,7.44399784 52.1269959,7.228 52.943,7.228 C53.7590041,7.228 54.4129975,7.44399784 54.905,7.876 C55.3970025,8.30800216 55.643,8.9839954 55.643,9.904 L55.643,13.396 C55.643,14.3160046 55.3970025,14.9919978 54.905,15.424 C54.4129975,15.8560022 53.7590041,16.072 52.943,16.072 C52.1269959,16.072 51.4750024,15.8560022 50.987,15.424 C50.4989976,14.9919978 50.255,14.3160046 50.255,13.396 Z M51.527,13.396 C51.527,14.4280052 51.9989953,14.944 52.943,14.944 C53.3990023,14.944 53.7509988,14.8160013 53.999,14.56 C54.2470012,14.3039987 54.371,13.9160026 54.371,13.396 L54.371,9.904 C54.371,9.3839974 54.2470012,8.99600128 53.999,8.74 C53.7509988,8.48399872 53.3990023,8.356 52.943,8.356 C51.9989953,8.356 51.527,8.87199484 51.527,9.904 L51.527,13.396 Z M57.506,15.58 L57.506,7.636 C57.506,7.52399944 57.5459996,7.4280004 57.626,7.348 C57.7060004,7.2679996 57.8059994,7.228 57.926,7.228 L60.206,7.228 C62.0460092,7.228 62.966,8.04399184 62.966,9.676 C62.966,10.3560034 62.8140015,10.8899981 62.51,11.278 C62.2059985,11.6660019 61.7940026,11.9239994 61.274,12.052 L62.954,15.208 C62.9860002,15.2640003 63.002,15.3239997 63.002,15.388 C63.002,15.5480008 62.9200008,15.6959993 62.756,15.832 C62.5919992,15.9680007 62.4180009,16.036 62.234,16.036 C62.025999,16.036 61.8580006,15.9120012 61.73,15.664 L59.978,12.232 L58.766,12.232 L58.766,15.58 C58.766,15.7080006 58.7040006,15.8099996 58.58,15.886 C58.4559994,15.9620004 58.3060009,16 58.13,16 C57.9619992,16 57.8160006,15.9620004 57.692,15.886 C57.5679994,15.8099996 57.506,15.7080006 57.506,15.58 Z M58.766,11.212 L60.206,11.212 C61.198005,11.212 61.694,10.7360048 61.694,9.784 C61.694,8.83199524 61.198005,8.356 60.206,8.356 L58.766,8.356 L58.766,11.212 Z M63.857,7.804 C63.857,7.65199924 63.8929996,7.51800058 63.965,7.402 C64.0370004,7.28599942 64.1409993,7.228 64.277,7.228 L69.257,7.228 C69.3930007,7.228 69.4969996,7.28399944 69.569,7.396 C69.6410004,7.50800056 69.677,7.63999924 69.677,7.792 C69.677,7.96000084 69.6390004,8.10199942 69.563,8.218 C69.4869996,8.33400058 69.3850006,8.392 69.257,8.392 L67.409,8.392 L67.409,15.58 C67.409,15.7080006 67.3450006,15.8099996 67.217,15.886 C67.0889994,15.9620004 66.9410008,16 66.773,16 C66.5969991,16 66.4470006,15.9620004 66.323,15.886 C66.1989994,15.8099996 66.137,15.7080006 66.137,15.58 L66.137,8.392 L64.277,8.392 C64.1489994,8.392 64.0470004,8.33400058 63.971,8.218 C63.8949996,8.10199942 63.857,7.9640008 63.857,7.804 Z M71.012,15.58 L71.012,7.648 C71.012,7.51999936 71.0679994,7.41800038 71.18,7.342 C71.2920006,7.26599962 71.4239992,7.228 71.576,7.228 L75.848,7.228 C75.9840007,7.228 76.0879996,7.28399944 76.16,7.396 C76.2320004,7.50800056 76.268,7.63599928 76.268,7.78 C76.268,7.9400008 76.2300004,8.07599944 76.154,8.188 C76.0779996,8.30000056 75.9760006,8.356 75.848,8.356 L72.284,8.356 L72.284,11.104 L74.132,11.104 C74.2600006,11.104 74.3619996,11.1539995 74.438,11.254 C74.5140004,11.3540005 74.552,11.4759993 74.552,11.62 C74.552,11.7480006 74.5160004,11.8619995 74.444,11.962 C74.3719996,12.0620005 74.2680007,12.112 74.132,12.112 L72.284,12.112 L72.284,14.872 L75.848,14.872 C75.9760006,14.872 76.0779996,14.9279994 76.154,15.04 C76.2300004,15.1520006 76.268,15.2879992 76.268,15.448 C76.268,15.5920007 76.2320004,15.7199994 76.16,15.832 C76.0879996,15.9440006 75.9840007,16 75.848,16 L71.576,16 C71.4239992,16 71.2920006,15.9620004 71.18,15.886 C71.0679994,15.8099996 71.012,15.7080006 71.012,15.58 Z" id="zona-norte" fill="#FFFFFF"></path>
        </g>
    </g>
</svg>