<svg width="78px" height="28px" viewBox="0 0 78 28" version="1.1" xmlns="http://www.w3.org/2000/svg" xmlns:xlink="http://www.w3.org/1999/xlink">
    <g id="Symbols" stroke="none" stroke-width="1" fill="none" fill-rule="evenodd">
        <g id="zonasul">
            <g>
                <path d="M42,24 L38,28 L34,24 L0,24 L0,0 L78,0 L78,24 L42,24 Z" id="Combined-Shape" fill="#675B59"></path>
                <path d="M14.258,16.628 C14.258,16.4759992 14.3019996,16.3280007 14.39,16.184 L18.11,9.356 L14.858,9.356 C14.7299994,9.356 14.6280004,9.30200054 14.552,9.194 C14.4759996,9.08599946 14.438,8.9520008 14.438,8.792 C14.438,8.63999924 14.4739996,8.50800056 14.546,8.396 C14.6180004,8.28399944 14.7219993,8.228 14.858,8.228 L19.334,8.228 C19.6060014,8.228 19.742,8.3479988 19.742,8.588 C19.742,8.73200072 19.6940005,8.88799916 19.598,9.056 L15.878,15.872 L19.514,15.872 C19.6420006,15.872 19.7439996,15.9299994 19.82,16.046 C19.8960004,16.1620006 19.934,16.2919993 19.934,16.436 C19.934,16.5800007 19.8960004,16.7099994 19.82,16.826 C19.7439996,16.9420006 19.6420006,17 19.514,17 L14.654,17 C14.3899987,17 14.258,16.8760012 14.258,16.628 Z M21.125,14.396 L21.125,10.904 C21.125,9.9839954 21.3689976,9.30800216 21.857,8.876 C22.3450024,8.44399784 22.9969959,8.228 23.813,8.228 C24.6290041,8.228 25.2829975,8.44399784 25.775,8.876 C26.2670025,9.30800216 26.513,9.9839954 26.513,10.904 L26.513,14.396 C26.513,15.3160046 26.2670025,15.9919978 25.775,16.424 C25.2829975,16.8560022 24.6290041,17.072 23.813,17.072 C22.9969959,17.072 22.3450024,16.8560022 21.857,16.424 C21.3689976,15.9919978 21.125,15.3160046 21.125,14.396 Z M22.397,14.396 C22.397,15.4280052 22.8689953,15.944 23.813,15.944 C24.2690023,15.944 24.6209988,15.8160013 24.869,15.56 C25.1170012,15.3039987 25.241,14.9160026 25.241,14.396 L25.241,10.904 C25.241,10.3839974 25.1170012,9.99600128 24.869,9.74 C24.6209988,9.48399872 24.2690023,9.356 23.813,9.356 C22.8689953,9.356 22.397,9.87199484 22.397,10.904 L22.397,14.396 Z M28.376,16.58 L28.376,8.648 C28.376,8.3679986 28.5879979,8.228 29.012,8.228 C29.2360011,8.228 29.4159993,8.2779995 29.552,8.378 C29.6880007,8.4780005 29.8279993,8.6679986 29.972,8.948 L32.636,14.144 L32.636,8.636 C32.636,8.49999932 32.6979994,8.39800034 32.822,8.33 C32.9460006,8.26199966 33.0959991,8.228 33.272,8.228 C33.4480009,8.228 33.5979994,8.26199966 33.722,8.33 C33.8460006,8.39800034 33.908,8.49999932 33.908,8.636 L33.908,16.58 C33.908,16.7080006 33.8460006,16.8099996 33.722,16.886 C33.5979994,16.9620004 33.4480009,17 33.272,17 C32.9359983,17 32.6840008,16.8440016 32.516,16.532 L29.648,11.072 L29.648,16.58 C29.648,16.7080006 29.5860006,16.8099996 29.462,16.886 C29.3379994,16.9620004 29.1880009,17 29.012,17 C28.8439992,17 28.6960006,16.9620004 28.568,16.886 C28.4399994,16.8099996 28.376,16.7080006 28.376,16.58 Z M35.243,16.472 C35.243,16.4239998 35.247,16.3880001 35.255,16.364 L37.643,8.588 C37.7390005,8.29999856 38.0069978,8.156 38.447,8.156 C38.8950022,8.156 39.1669995,8.29999856 39.263,8.588 L41.639,16.364 C41.6550001,16.4120002 41.663,16.4479999 41.663,16.472 C41.663,16.6160007 41.5770009,16.7399995 41.405,16.844 C41.2329991,16.9480005 41.051001,17 40.859,17 C40.6269988,17 40.4830003,16.9120009 40.427,16.736 L39.935,15.032 L36.971,15.032 L36.479,16.736 C36.4229997,16.9120009 36.2750012,17 36.035,17 C35.842999,17 35.6630008,16.9480005 35.495,16.844 C35.3269992,16.7399995 35.243,16.6160007 35.243,16.472 Z M37.247,14.012 L39.647,14.012 L38.447,9.896 L37.247,14.012 Z M45.317,15.68 C45.317,15.5279992 45.3729994,15.3760008 45.485,15.224 C45.5970006,15.0719992 45.7249993,14.996 45.869,14.996 C45.9570004,14.996 46.0629994,15.0459995 46.187,15.146 C46.3110006,15.2460005 46.4329994,15.3539994 46.553,15.47 C46.6730006,15.5860006 46.8549988,15.6939995 47.099,15.794 C47.3430012,15.8940005 47.6169985,15.944 47.921,15.944 C48.3770023,15.944 48.7429986,15.8360011 49.019,15.62 C49.2950014,15.4039989 49.433,15.0880021 49.433,14.672 C49.433,14.2879981 49.2990013,13.9680013 49.031,13.712 C48.7629987,13.4559987 48.4390019,13.2520008 48.059,13.1 C47.6789981,12.9479992 47.2970019,12.7840009 46.913,12.608 C46.5289981,12.4319991 46.2030013,12.1680018 45.935,11.816 C45.6669987,11.4639982 45.533,11.0240026 45.533,10.496 C45.533,10.0719979 45.6149992,9.70400156 45.779,9.392 C45.9430008,9.07999844 46.1649986,8.84000084 46.445,8.672 C46.7250014,8.50399916 47.0189985,8.38200038 47.327,8.306 C47.6350015,8.22999962 47.9609983,8.192 48.305,8.192 C48.5210011,8.192 48.7469988,8.20599986 48.983,8.234 C49.2190012,8.26200014 49.4529988,8.30799968 49.685,8.372 C49.9170012,8.43600032 50.1089992,8.5279994 50.261,8.648 C50.4130008,8.7680006 50.489,8.90399924 50.489,9.056 C50.489,9.20800076 50.4410005,9.35999924 50.345,9.512 C50.2489995,9.66400076 50.1210008,9.74 49.961,9.74 C49.8809996,9.74 49.7730007,9.70200038 49.637,9.626 C49.5009993,9.54999962 49.3190011,9.47400038 49.091,9.398 C48.8629989,9.32199962 48.6010015,9.284 48.305,9.284 C47.8489977,9.284 47.4850014,9.3739991 47.213,9.554 C46.9409986,9.7340009 46.805,10.0079982 46.805,10.376 C46.805,10.6160012 46.8769993,10.8219991 47.021,10.994 C47.1650007,11.1660009 47.3509989,11.3079994 47.579,11.42 C47.8070011,11.5320006 48.0609986,11.6419995 48.341,11.75 C48.6210014,11.8580005 48.8989986,11.9839993 49.175,12.128 C49.4510014,12.2720007 49.7029989,12.4379991 49.931,12.626 C50.1590011,12.8140009 50.3449993,13.0719984 50.489,13.4 C50.6330007,13.7280016 50.705,14.1079978 50.705,14.54 C50.705,15.3720042 50.4550025,16.0059978 49.955,16.442 C49.4549975,16.8780022 48.7930041,17.096 47.969,17.096 C47.2329963,17.096 46.6070026,16.9420015 46.091,16.634 C45.5749974,16.3259985 45.317,16.0080016 45.317,15.68 Z M52.244,14.396 L52.244,8.636 C52.244,8.49999932 52.3059994,8.39800034 52.43,8.33 C52.5540006,8.26199966 52.7039991,8.228 52.88,8.228 C53.0560009,8.228 53.2059994,8.26199966 53.33,8.33 C53.4540006,8.39800034 53.516,8.49999932 53.516,8.636 L53.516,14.396 C53.516,14.9160026 53.6439987,15.3039987 53.9,15.56 C54.1560013,15.8160013 54.5159977,15.944 54.98,15.944 C55.9640049,15.944 56.456,15.4280052 56.456,14.396 L56.456,8.636 C56.456,8.49999932 56.5179994,8.39800034 56.642,8.33 C56.7660006,8.26199966 56.9159991,8.228 57.092,8.228 C57.2680009,8.228 57.4179994,8.26199966 57.542,8.33 C57.6660006,8.39800034 57.728,8.49999932 57.728,8.636 L57.728,14.396 C57.728,15.3160046 57.4780025,15.9919978 56.978,16.424 C56.4779975,16.8560022 55.8120042,17.072 54.98,17.072 C54.1559959,17.072 53.4940025,16.8560022 52.994,16.424 C52.4939975,15.9919978 52.244,15.3160046 52.244,14.396 Z M59.651,16.58 L59.651,8.636 C59.651,8.49999932 59.7129994,8.39800034 59.837,8.33 C59.9610006,8.26199966 60.1109991,8.228 60.287,8.228 C60.4630009,8.228 60.6129994,8.26199966 60.737,8.33 C60.8610006,8.39800034 60.923,8.49999932 60.923,8.636 L60.923,15.872 L64.043,15.872 C64.1630006,15.872 64.2569997,15.9279994 64.325,16.04 C64.3930003,16.1520006 64.427,16.2839992 64.427,16.436 C64.427,16.5880008 64.3930003,16.7199994 64.325,16.832 C64.2569997,16.9440006 64.1630006,17 64.043,17 L60.215,17 C60.0629992,17 59.9310006,16.9620004 59.819,16.886 C59.7069994,16.8099996 59.651,16.7080006 59.651,16.58 Z" id="Zona-Sul" fill="#FFFFFF"></path>
            </g>
        </g>
    </g>
</svg>